<?xml version="1.0" encoding="utf-8" standalone="no"?>
<!DOCTYPE svg PUBLIC "-//W3C//DTD SVG 1.1//EN"
  "http://www.w3.org/Graphics/SVG/1.1/DTD/svg11.dtd">
<svg xmlns:xlink="http://www.w3.org/1999/xlink" width="249.409268pt" height="91.359583pt" viewBox="0 0 249.409268 91.359583" xmlns="http://www.w3.org/2000/svg" version="1.1">
 <metadata>
  <rdf:RDF xmlns:dc="http://purl.org/dc/elements/1.1/" xmlns:cc="http://creativecommons.org/ns#" xmlns:rdf="http://www.w3.org/1999/02/22-rdf-syntax-ns#">
   <cc:Work>
    <dc:type rdf:resource="http://purl.org/dc/dcmitype/StillImage"/>
    <dc:date>2024-08-07T18:02:52.708446</dc:date>
    <dc:format>image/svg+xml</dc:format>
    <dc:creator>
     <cc:Agent>
      <dc:title>Matplotlib v3.9.0, https://matplotlib.org/</dc:title>
     </cc:Agent>
    </dc:creator>
   </cc:Work>
  </rdf:RDF>
 </metadata>
 <defs>
  <style type="text/css">*{stroke-linejoin: round; stroke-linecap: butt}</style>
 </defs>
 <g id="figure_1">
  <g id="patch_1">
   <path d="M 0 91.359583 
L 249.409268 91.359583 
L 249.409268 0 
L 0 0 
z
" style="fill: #ffffff"/>
  </g>
  <g id="axes_1">
   <g id="patch_2">
    <path d="M 29.466875 66.645833 
L 245.809268 66.645833 
L 245.809268 3.6 
L 29.466875 3.6 
z
" style="fill: #ffffff"/>
   </g>
   <g id="PolyCollection_1">
    <defs>
     <path id="m4aff11de0b" d="M 39.30062 -57.9041 
L 39.30062 -57.893194 
L 67.397035 -62.583274 
L 95.49345 -66.004435 
L 123.589864 -66.567581 
L 151.686279 -66.381578 
L 179.782694 -65.573261 
L 207.879108 -65.254628 
L 235.975523 -62.985388 
L 235.975523 -63.582665 
L 235.975523 -63.582665 
L 207.879108 -65.533399 
L 179.782694 -65.881154 
L 151.686279 -66.748932 
L 123.589864 -66.877138 
L 95.49345 -66.362989 
L 67.397035 -62.791617 
L 39.30062 -57.9041 
z
" style="stroke: #ef1561; stroke-opacity: 0.2"/>
    </defs>
    <g clip-path="url(#p0ffe05a326)">
     <use xlink:href="#m4aff11de0b" x="0" y="91.359583" style="fill: #ef1561; fill-opacity: 0.2; stroke: #ef1561; stroke-opacity: 0.2"/>
    </g>
   </g>
   <g id="PolyCollection_2">
    <defs>
     <path id="mc52a72f4c5" d="M 39.30062 -34.86704 
L 39.30062 -30.638106 
L 67.397035 -35.116293 
L 95.49345 -40.057404 
L 123.589864 -44.242674 
L 151.686279 -48.639572 
L 179.782694 -53.053103 
L 207.879108 -54.499137 
L 235.975523 -54.488844 
L 235.975523 -54.737788 
L 235.975523 -54.737788 
L 207.879108 -54.789175 
L 179.782694 -53.380275 
L 151.686279 -50.48782 
L 123.589864 -46.41684 
L 95.49345 -43.135744 
L 67.397035 -36.877326 
L 39.30062 -34.86704 
z
" style="stroke: #f89438; stroke-opacity: 0.2"/>
    </defs>
    <g clip-path="url(#p0ffe05a326)">
     <use xlink:href="#mc52a72f4c5" x="0" y="91.359583" style="fill: #f89438; fill-opacity: 0.2; stroke: #f89438; stroke-opacity: 0.2"/>
    </g>
   </g>
   <g id="PolyCollection_3">
    <defs>
     <path id="m255f575797" d="M 39.30062 -59.809685 
L 39.30062 -59.702955 
L 67.397035 -63.817346 
L 95.49345 -67.683129 
L 123.589864 -70.47659 
L 151.686279 -70.978594 
L 179.782694 -72.91985 
L 207.879108 -73.39475 
L 235.975523 -71.230958 
L 235.975523 -72.200949 
L 235.975523 -72.200949 
L 207.879108 -73.5319 
L 179.782694 -73.116626 
L 151.686279 -72.142631 
L 123.589864 -70.850486 
L 95.49345 -67.82166 
L 67.397035 -64.022824 
L 39.30062 -59.809685 
z
" style="stroke: #2d5d91; stroke-opacity: 0.2"/>
    </defs>
    <g clip-path="url(#p0ffe05a326)">
     <use xlink:href="#m255f575797" x="0" y="91.359583" style="fill: #2d5d91; fill-opacity: 0.2; stroke: #2d5d91; stroke-opacity: 0.2"/>
    </g>
   </g>
   <g id="PolyCollection_4">
    <defs>
     <path id="ma6e559fd22" d="M 39.30062 -81.23372 
L 39.30062 -79.840339 
L 67.397035 -83.221806 
L 95.49345 -84.705371 
L 123.589864 -84.5316 
L 151.686279 -83.884522 
L 179.782694 -82.057056 
L 207.879108 -83.240838 
L 235.975523 -77.065786 
L 235.975523 -80.851854 
L 235.975523 -80.851854 
L 207.879108 -83.791029 
L 179.782694 -84.539515 
L 151.686279 -85.351222 
L 123.589864 -85.239779 
L 95.49345 -85.363258 
L 67.397035 -84.014925 
L 39.30062 -81.23372 
z
" style="stroke: #ffde57; stroke-opacity: 0.2"/>
    </defs>
    <g clip-path="url(#p0ffe05a326)">
     <use xlink:href="#ma6e559fd22" x="0" y="91.359583" style="fill: #ffde57; fill-opacity: 0.2; stroke: #ffde57; stroke-opacity: 0.2"/>
    </g>
   </g>
   <g id="PolyCollection_5">
    <defs>
     <path id="mbfe8b5b11e" d="M 39.30062 -70.314219 
L 39.30062 -68.584682 
L 67.397035 -72.956907 
L 95.49345 -75.472709 
L 123.589864 -75.453481 
L 151.686279 -75.710448 
L 179.782694 -75.285265 
L 207.879108 -74.94913 
L 235.975523 -73.70249 
L 235.975523 -74.072655 
L 235.975523 -74.072655 
L 207.879108 -75.35961 
L 179.782694 -75.587066 
L 151.686279 -75.907268 
L 123.589864 -76.215452 
L 95.49345 -75.639918 
L 67.397035 -74.839245 
L 39.30062 -70.314219 
z
" style="stroke: #028cf0; stroke-opacity: 0.2"/>
    </defs>
    <g clip-path="url(#p0ffe05a326)">
     <use xlink:href="#mbfe8b5b11e" x="0" y="91.359583" style="fill: #028cf0; fill-opacity: 0.2; stroke: #028cf0; stroke-opacity: 0.2"/>
    </g>
   </g>
   <g id="PolyCollection_6">
    <defs>
     <path id="m3b8ee06a6f" d="M 39.30062 -62.082559 
L 39.30062 -62.073924 
L 67.397035 -66.407529 
L 95.49345 -70.358612 
L 123.589864 -70.0567 
L 151.686279 -70.095272 
L 179.782694 -70.05695 
L 207.879108 -69.375979 
L 235.975523 -70.448252 
L 235.975523 -70.618654 
L 235.975523 -70.618654 
L 207.879108 -70.273494 
L 179.782694 -70.561744 
L 151.686279 -70.781882 
L 123.589864 -71.113421 
L 95.49345 -70.962382 
L 67.397035 -66.599741 
L 39.30062 -62.082559 
z
" style="stroke: #008000; stroke-opacity: 0.2"/>
    </defs>
    <g clip-path="url(#p0ffe05a326)">
     <use xlink:href="#m3b8ee06a6f" x="0" y="91.359583" style="fill: #008000; fill-opacity: 0.2; stroke: #008000; stroke-opacity: 0.2"/>
    </g>
   </g>
   <g id="matplotlib.axis_1">
    <g id="xtick_1">
     <g id="line2d_1">
      <defs>
       <path id="m8bcc014636" d="M 0 0 
L 0 2 
" style="stroke: #212121; stroke-width: 0.5"/>
      </defs>
      <g>
       <use xlink:href="#m8bcc014636" x="39.30062" y="66.645833" style="fill: #212121; stroke: #212121; stroke-width: 0.5"/>
      </g>
     </g>
     <g id="text_1">
      <!-- 1 -->
      <g style="fill: #212121" transform="translate(37.39187 76.704896) scale(0.06 -0.06)">
       <defs>
        <path id="DejaVuSans-31" d="M 794 531 
L 1825 531 
L 1825 4091 
L 703 3866 
L 703 4441 
L 1819 4666 
L 2450 4666 
L 2450 531 
L 3481 531 
L 3481 0 
L 794 0 
L 794 531 
z
" transform="scale(0.015625)"/>
       </defs>
       <use xlink:href="#DejaVuSans-31"/>
      </g>
     </g>
    </g>
    <g id="xtick_2">
     <g id="line2d_2">
      <g>
       <use xlink:href="#m8bcc014636" x="67.397035" y="66.645833" style="fill: #212121; stroke: #212121; stroke-width: 0.5"/>
      </g>
     </g>
     <g id="text_2">
      <!-- 2 -->
      <g style="fill: #212121" transform="translate(65.488285 76.704896) scale(0.06 -0.06)">
       <defs>
        <path id="DejaVuSans-32" d="M 1228 531 
L 3431 531 
L 3431 0 
L 469 0 
L 469 531 
Q 828 903 1448 1529 
Q 2069 2156 2228 2338 
Q 2531 2678 2651 2914 
Q 2772 3150 2772 3378 
Q 2772 3750 2511 3984 
Q 2250 4219 1831 4219 
Q 1534 4219 1204 4116 
Q 875 4013 500 3803 
L 500 4441 
Q 881 4594 1212 4672 
Q 1544 4750 1819 4750 
Q 2544 4750 2975 4387 
Q 3406 4025 3406 3419 
Q 3406 3131 3298 2873 
Q 3191 2616 2906 2266 
Q 2828 2175 2409 1742 
Q 1991 1309 1228 531 
z
" transform="scale(0.015625)"/>
       </defs>
       <use xlink:href="#DejaVuSans-32"/>
      </g>
     </g>
    </g>
    <g id="xtick_3">
     <g id="line2d_3">
      <g>
       <use xlink:href="#m8bcc014636" x="95.49345" y="66.645833" style="fill: #212121; stroke: #212121; stroke-width: 0.5"/>
      </g>
     </g>
     <g id="text_3">
      <!-- 4 -->
      <g style="fill: #212121" transform="translate(93.5847 76.704896) scale(0.06 -0.06)">
       <defs>
        <path id="DejaVuSans-34" d="M 2419 4116 
L 825 1625 
L 2419 1625 
L 2419 4116 
z
M 2253 4666 
L 3047 4666 
L 3047 1625 
L 3713 1625 
L 3713 1100 
L 3047 1100 
L 3047 0 
L 2419 0 
L 2419 1100 
L 313 1100 
L 313 1709 
L 2253 4666 
z
" transform="scale(0.015625)"/>
       </defs>
       <use xlink:href="#DejaVuSans-34"/>
      </g>
     </g>
    </g>
    <g id="xtick_4">
     <g id="line2d_4">
      <g>
       <use xlink:href="#m8bcc014636" x="123.589864" y="66.645833" style="fill: #212121; stroke: #212121; stroke-width: 0.5"/>
      </g>
     </g>
     <g id="text_4">
      <!-- 8 -->
      <g style="fill: #212121" transform="translate(121.681114 76.704896) scale(0.06 -0.06)">
       <defs>
        <path id="DejaVuSans-38" d="M 2034 2216 
Q 1584 2216 1326 1975 
Q 1069 1734 1069 1313 
Q 1069 891 1326 650 
Q 1584 409 2034 409 
Q 2484 409 2743 651 
Q 3003 894 3003 1313 
Q 3003 1734 2745 1975 
Q 2488 2216 2034 2216 
z
M 1403 2484 
Q 997 2584 770 2862 
Q 544 3141 544 3541 
Q 544 4100 942 4425 
Q 1341 4750 2034 4750 
Q 2731 4750 3128 4425 
Q 3525 4100 3525 3541 
Q 3525 3141 3298 2862 
Q 3072 2584 2669 2484 
Q 3125 2378 3379 2068 
Q 3634 1759 3634 1313 
Q 3634 634 3220 271 
Q 2806 -91 2034 -91 
Q 1263 -91 848 271 
Q 434 634 434 1313 
Q 434 1759 690 2068 
Q 947 2378 1403 2484 
z
M 1172 3481 
Q 1172 3119 1398 2916 
Q 1625 2713 2034 2713 
Q 2441 2713 2670 2916 
Q 2900 3119 2900 3481 
Q 2900 3844 2670 4047 
Q 2441 4250 2034 4250 
Q 1625 4250 1398 4047 
Q 1172 3844 1172 3481 
z
" transform="scale(0.015625)"/>
       </defs>
       <use xlink:href="#DejaVuSans-38"/>
      </g>
     </g>
    </g>
    <g id="xtick_5">
     <g id="line2d_5">
      <g>
       <use xlink:href="#m8bcc014636" x="151.686279" y="66.645833" style="fill: #212121; stroke: #212121; stroke-width: 0.5"/>
      </g>
     </g>
     <g id="text_5">
      <!-- 16 -->
      <g style="fill: #212121" transform="translate(147.868779 76.704896) scale(0.06 -0.06)">
       <defs>
        <path id="DejaVuSans-36" d="M 2113 2584 
Q 1688 2584 1439 2293 
Q 1191 2003 1191 1497 
Q 1191 994 1439 701 
Q 1688 409 2113 409 
Q 2538 409 2786 701 
Q 3034 994 3034 1497 
Q 3034 2003 2786 2293 
Q 2538 2584 2113 2584 
z
M 3366 4563 
L 3366 3988 
Q 3128 4100 2886 4159 
Q 2644 4219 2406 4219 
Q 1781 4219 1451 3797 
Q 1122 3375 1075 2522 
Q 1259 2794 1537 2939 
Q 1816 3084 2150 3084 
Q 2853 3084 3261 2657 
Q 3669 2231 3669 1497 
Q 3669 778 3244 343 
Q 2819 -91 2113 -91 
Q 1303 -91 875 529 
Q 447 1150 447 2328 
Q 447 3434 972 4092 
Q 1497 4750 2381 4750 
Q 2619 4750 2861 4703 
Q 3103 4656 3366 4563 
z
" transform="scale(0.015625)"/>
       </defs>
       <use xlink:href="#DejaVuSans-31"/>
       <use xlink:href="#DejaVuSans-36" x="63.623047"/>
      </g>
     </g>
    </g>
    <g id="xtick_6">
     <g id="line2d_6">
      <g>
       <use xlink:href="#m8bcc014636" x="179.782694" y="66.645833" style="fill: #212121; stroke: #212121; stroke-width: 0.5"/>
      </g>
     </g>
     <g id="text_6">
      <!-- 32 -->
      <g style="fill: #212121" transform="translate(175.965194 76.704896) scale(0.06 -0.06)">
       <defs>
        <path id="DejaVuSans-33" d="M 2597 2516 
Q 3050 2419 3304 2112 
Q 3559 1806 3559 1356 
Q 3559 666 3084 287 
Q 2609 -91 1734 -91 
Q 1441 -91 1130 -33 
Q 819 25 488 141 
L 488 750 
Q 750 597 1062 519 
Q 1375 441 1716 441 
Q 2309 441 2620 675 
Q 2931 909 2931 1356 
Q 2931 1769 2642 2001 
Q 2353 2234 1838 2234 
L 1294 2234 
L 1294 2753 
L 1863 2753 
Q 2328 2753 2575 2939 
Q 2822 3125 2822 3475 
Q 2822 3834 2567 4026 
Q 2313 4219 1838 4219 
Q 1578 4219 1281 4162 
Q 984 4106 628 3988 
L 628 4550 
Q 988 4650 1302 4700 
Q 1616 4750 1894 4750 
Q 2613 4750 3031 4423 
Q 3450 4097 3450 3541 
Q 3450 3153 3228 2886 
Q 3006 2619 2597 2516 
z
" transform="scale(0.015625)"/>
       </defs>
       <use xlink:href="#DejaVuSans-33"/>
       <use xlink:href="#DejaVuSans-32" x="63.623047"/>
      </g>
     </g>
    </g>
    <g id="xtick_7">
     <g id="line2d_7">
      <g>
       <use xlink:href="#m8bcc014636" x="207.879108" y="66.645833" style="fill: #212121; stroke: #212121; stroke-width: 0.5"/>
      </g>
     </g>
     <g id="text_7">
      <!-- 64 -->
      <g style="fill: #212121" transform="translate(204.061608 76.704896) scale(0.06 -0.06)">
       <use xlink:href="#DejaVuSans-36"/>
       <use xlink:href="#DejaVuSans-34" x="63.623047"/>
      </g>
     </g>
    </g>
    <g id="xtick_8">
     <g id="line2d_8">
      <g>
       <use xlink:href="#m8bcc014636" x="235.975523" y="66.645833" style="fill: #212121; stroke: #212121; stroke-width: 0.5"/>
      </g>
     </g>
     <g id="text_8">
      <!-- 128 -->
      <g style="fill: #212121" transform="translate(230.249273 76.704896) scale(0.06 -0.06)">
       <use xlink:href="#DejaVuSans-31"/>
       <use xlink:href="#DejaVuSans-32" x="63.623047"/>
       <use xlink:href="#DejaVuSans-38" x="127.246094"/>
      </g>
     </g>
    </g>
    <g id="text_9">
     <!-- Workers -->
     <g style="fill: #212121" transform="translate(125.508697 86.511771) scale(0.06 -0.06)">
      <defs>
       <path id="DejaVuSans-57" d="M 213 4666 
L 850 4666 
L 1831 722 
L 2809 4666 
L 3519 4666 
L 4500 722 
L 5478 4666 
L 6119 4666 
L 4947 0 
L 4153 0 
L 3169 4050 
L 2175 0 
L 1381 0 
L 213 4666 
z
" transform="scale(0.015625)"/>
       <path id="DejaVuSans-6f" d="M 1959 3097 
Q 1497 3097 1228 2736 
Q 959 2375 959 1747 
Q 959 1119 1226 758 
Q 1494 397 1959 397 
Q 2419 397 2687 759 
Q 2956 1122 2956 1747 
Q 2956 2369 2687 2733 
Q 2419 3097 1959 3097 
z
M 1959 3584 
Q 2709 3584 3137 3096 
Q 3566 2609 3566 1747 
Q 3566 888 3137 398 
Q 2709 -91 1959 -91 
Q 1206 -91 779 398 
Q 353 888 353 1747 
Q 353 2609 779 3096 
Q 1206 3584 1959 3584 
z
" transform="scale(0.015625)"/>
       <path id="DejaVuSans-72" d="M 2631 2963 
Q 2534 3019 2420 3045 
Q 2306 3072 2169 3072 
Q 1681 3072 1420 2755 
Q 1159 2438 1159 1844 
L 1159 0 
L 581 0 
L 581 3500 
L 1159 3500 
L 1159 2956 
Q 1341 3275 1631 3429 
Q 1922 3584 2338 3584 
Q 2397 3584 2469 3576 
Q 2541 3569 2628 3553 
L 2631 2963 
z
" transform="scale(0.015625)"/>
       <path id="DejaVuSans-6b" d="M 581 4863 
L 1159 4863 
L 1159 1991 
L 2875 3500 
L 3609 3500 
L 1753 1863 
L 3688 0 
L 2938 0 
L 1159 1709 
L 1159 0 
L 581 0 
L 581 4863 
z
" transform="scale(0.015625)"/>
       <path id="DejaVuSans-65" d="M 3597 1894 
L 3597 1613 
L 953 1613 
Q 991 1019 1311 708 
Q 1631 397 2203 397 
Q 2534 397 2845 478 
Q 3156 559 3463 722 
L 3463 178 
Q 3153 47 2828 -22 
Q 2503 -91 2169 -91 
Q 1331 -91 842 396 
Q 353 884 353 1716 
Q 353 2575 817 3079 
Q 1281 3584 2069 3584 
Q 2775 3584 3186 3129 
Q 3597 2675 3597 1894 
z
M 3022 2063 
Q 3016 2534 2758 2815 
Q 2500 3097 2075 3097 
Q 1594 3097 1305 2825 
Q 1016 2553 972 2059 
L 3022 2063 
z
" transform="scale(0.015625)"/>
       <path id="DejaVuSans-73" d="M 2834 3397 
L 2834 2853 
Q 2591 2978 2328 3040 
Q 2066 3103 1784 3103 
Q 1356 3103 1142 2972 
Q 928 2841 928 2578 
Q 928 2378 1081 2264 
Q 1234 2150 1697 2047 
L 1894 2003 
Q 2506 1872 2764 1633 
Q 3022 1394 3022 966 
Q 3022 478 2636 193 
Q 2250 -91 1575 -91 
Q 1294 -91 989 -36 
Q 684 19 347 128 
L 347 722 
Q 666 556 975 473 
Q 1284 391 1588 391 
Q 1994 391 2212 530 
Q 2431 669 2431 922 
Q 2431 1156 2273 1281 
Q 2116 1406 1581 1522 
L 1381 1569 
Q 847 1681 609 1914 
Q 372 2147 372 2553 
Q 372 3047 722 3315 
Q 1072 3584 1716 3584 
Q 2034 3584 2315 3537 
Q 2597 3491 2834 3397 
z
" transform="scale(0.015625)"/>
      </defs>
      <use xlink:href="#DejaVuSans-57"/>
      <use xlink:href="#DejaVuSans-6f" x="93.001953"/>
      <use xlink:href="#DejaVuSans-72" x="154.183594"/>
      <use xlink:href="#DejaVuSans-6b" x="195.296875"/>
      <use xlink:href="#DejaVuSans-65" x="249.582031"/>
      <use xlink:href="#DejaVuSans-72" x="311.105469"/>
      <use xlink:href="#DejaVuSans-73" x="352.21875"/>
     </g>
    </g>
   </g>
   <g id="matplotlib.axis_2">
    <g id="ytick_1">
     <g id="line2d_9">
      <defs>
       <path id="m6e5e93b101" d="M 0 0 
L -2 0 
" style="stroke: #212121; stroke-width: 0.5"/>
      </defs>
      <g>
       <use xlink:href="#m6e5e93b101" x="29.466875" y="60.638192" style="fill: #212121; stroke: #212121; stroke-width: 0.5"/>
      </g>
     </g>
     <g id="text_10">
      <!-- $\mathdefault{10^{0}}$ -->
      <g style="fill: #212121" transform="translate(13.406875 62.917723) scale(0.06 -0.06)">
       <defs>
        <path id="DejaVuSans-30" d="M 2034 4250 
Q 1547 4250 1301 3770 
Q 1056 3291 1056 2328 
Q 1056 1369 1301 889 
Q 1547 409 2034 409 
Q 2525 409 2770 889 
Q 3016 1369 3016 2328 
Q 3016 3291 2770 3770 
Q 2525 4250 2034 4250 
z
M 2034 4750 
Q 2819 4750 3233 4129 
Q 3647 3509 3647 2328 
Q 3647 1150 3233 529 
Q 2819 -91 2034 -91 
Q 1250 -91 836 529 
Q 422 1150 422 2328 
Q 422 3509 836 4129 
Q 1250 4750 2034 4750 
z
" transform="scale(0.015625)"/>
       </defs>
       <use xlink:href="#DejaVuSans-31" transform="translate(0 0.765625)"/>
       <use xlink:href="#DejaVuSans-30" transform="translate(63.623047 0.765625)"/>
       <use xlink:href="#DejaVuSans-30" transform="translate(128.203125 39.046875) scale(0.7)"/>
      </g>
     </g>
    </g>
    <g id="ytick_2">
     <g id="line2d_10">
      <g>
       <use xlink:href="#m6e5e93b101" x="29.466875" y="45.541339" style="fill: #212121; stroke: #212121; stroke-width: 0.5"/>
      </g>
     </g>
     <g id="text_11">
      <!-- $\mathdefault{10^{1}}$ -->
      <g style="fill: #212121" transform="translate(13.406875 47.820871) scale(0.06 -0.06)">
       <use xlink:href="#DejaVuSans-31" transform="translate(0 0.684375)"/>
       <use xlink:href="#DejaVuSans-30" transform="translate(63.623047 0.684375)"/>
       <use xlink:href="#DejaVuSans-31" transform="translate(128.203125 38.965625) scale(0.7)"/>
      </g>
     </g>
    </g>
    <g id="ytick_3">
     <g id="line2d_11">
      <g>
       <use xlink:href="#m6e5e93b101" x="29.466875" y="30.444487" style="fill: #212121; stroke: #212121; stroke-width: 0.5"/>
      </g>
     </g>
     <g id="text_12">
      <!-- $\mathdefault{10^{2}}$ -->
      <g style="fill: #212121" transform="translate(13.406875 32.724018) scale(0.06 -0.06)">
       <use xlink:href="#DejaVuSans-31" transform="translate(0 0.765625)"/>
       <use xlink:href="#DejaVuSans-30" transform="translate(63.623047 0.765625)"/>
       <use xlink:href="#DejaVuSans-32" transform="translate(128.203125 39.046875) scale(0.7)"/>
      </g>
     </g>
    </g>
    <g id="ytick_4">
     <g id="line2d_12">
      <g>
       <use xlink:href="#m6e5e93b101" x="29.466875" y="15.347635" style="fill: #212121; stroke: #212121; stroke-width: 0.5"/>
      </g>
     </g>
     <g id="text_13">
      <!-- $\mathdefault{10^{3}}$ -->
      <g style="fill: #212121" transform="translate(13.406875 17.627166) scale(0.06 -0.06)">
       <use xlink:href="#DejaVuSans-31" transform="translate(0 0.765625)"/>
       <use xlink:href="#DejaVuSans-30" transform="translate(63.623047 0.765625)"/>
       <use xlink:href="#DejaVuSans-33" transform="translate(128.203125 39.046875) scale(0.7)"/>
      </g>
     </g>
    </g>
    <g id="ytick_5">
     <g id="line2d_13">
      <g>
       <use xlink:href="#m6e5e93b101" x="29.466875" y="66.645833" style="fill: #212121; stroke: #212121; stroke-width: 0.5"/>
      </g>
     </g>
    </g>
    <g id="ytick_6">
     <g id="line2d_14">
      <g>
       <use xlink:href="#m6e5e93b101" x="29.466875" y="65.182797" style="fill: #212121; stroke: #212121; stroke-width: 0.5"/>
      </g>
     </g>
    </g>
    <g id="ytick_7">
     <g id="line2d_15">
      <g>
       <use xlink:href="#m6e5e93b101" x="29.466875" y="63.98741" style="fill: #212121; stroke: #212121; stroke-width: 0.5"/>
      </g>
     </g>
    </g>
    <g id="ytick_8">
     <g id="line2d_16">
      <g>
       <use xlink:href="#m6e5e93b101" x="29.466875" y="62.976724" style="fill: #212121; stroke: #212121; stroke-width: 0.5"/>
      </g>
     </g>
    </g>
    <g id="ytick_9">
     <g id="line2d_17">
      <g>
       <use xlink:href="#m6e5e93b101" x="29.466875" y="62.101228" style="fill: #212121; stroke: #212121; stroke-width: 0.5"/>
      </g>
     </g>
    </g>
    <g id="ytick_10">
     <g id="line2d_18">
      <g>
       <use xlink:href="#m6e5e93b101" x="29.466875" y="61.328986" style="fill: #212121; stroke: #212121; stroke-width: 0.5"/>
      </g>
     </g>
    </g>
    <g id="ytick_11">
     <g id="line2d_19">
      <g>
       <use xlink:href="#m6e5e93b101" x="29.466875" y="56.093586" style="fill: #212121; stroke: #212121; stroke-width: 0.5"/>
      </g>
     </g>
    </g>
    <g id="ytick_12">
     <g id="line2d_20">
      <g>
       <use xlink:href="#m6e5e93b101" x="29.466875" y="53.435163" style="fill: #212121; stroke: #212121; stroke-width: 0.5"/>
      </g>
     </g>
    </g>
    <g id="ytick_13">
     <g id="line2d_21">
      <g>
       <use xlink:href="#m6e5e93b101" x="29.466875" y="51.548981" style="fill: #212121; stroke: #212121; stroke-width: 0.5"/>
      </g>
     </g>
    </g>
    <g id="ytick_14">
     <g id="line2d_22">
      <g>
       <use xlink:href="#m6e5e93b101" x="29.466875" y="50.085945" style="fill: #212121; stroke: #212121; stroke-width: 0.5"/>
      </g>
     </g>
    </g>
    <g id="ytick_15">
     <g id="line2d_23">
      <g>
       <use xlink:href="#m6e5e93b101" x="29.466875" y="48.890557" style="fill: #212121; stroke: #212121; stroke-width: 0.5"/>
      </g>
     </g>
    </g>
    <g id="ytick_16">
     <g id="line2d_24">
      <g>
       <use xlink:href="#m6e5e93b101" x="29.466875" y="47.879871" style="fill: #212121; stroke: #212121; stroke-width: 0.5"/>
      </g>
     </g>
    </g>
    <g id="ytick_17">
     <g id="line2d_25">
      <g>
       <use xlink:href="#m6e5e93b101" x="29.466875" y="47.004376" style="fill: #212121; stroke: #212121; stroke-width: 0.5"/>
      </g>
     </g>
    </g>
    <g id="ytick_18">
     <g id="line2d_26">
      <g>
       <use xlink:href="#m6e5e93b101" x="29.466875" y="46.232133" style="fill: #212121; stroke: #212121; stroke-width: 0.5"/>
      </g>
     </g>
    </g>
    <g id="ytick_19">
     <g id="line2d_27">
      <g>
       <use xlink:href="#m6e5e93b101" x="29.466875" y="40.996734" style="fill: #212121; stroke: #212121; stroke-width: 0.5"/>
      </g>
     </g>
    </g>
    <g id="ytick_20">
     <g id="line2d_28">
      <g>
       <use xlink:href="#m6e5e93b101" x="29.466875" y="38.33831" style="fill: #212121; stroke: #212121; stroke-width: 0.5"/>
      </g>
     </g>
    </g>
    <g id="ytick_21">
     <g id="line2d_29">
      <g>
       <use xlink:href="#m6e5e93b101" x="29.466875" y="36.452129" style="fill: #212121; stroke: #212121; stroke-width: 0.5"/>
      </g>
     </g>
    </g>
    <g id="ytick_22">
     <g id="line2d_30">
      <g>
       <use xlink:href="#m6e5e93b101" x="29.466875" y="34.989092" style="fill: #212121; stroke: #212121; stroke-width: 0.5"/>
      </g>
     </g>
    </g>
    <g id="ytick_23">
     <g id="line2d_31">
      <g>
       <use xlink:href="#m6e5e93b101" x="29.466875" y="33.793705" style="fill: #212121; stroke: #212121; stroke-width: 0.5"/>
      </g>
     </g>
    </g>
    <g id="ytick_24">
     <g id="line2d_32">
      <g>
       <use xlink:href="#m6e5e93b101" x="29.466875" y="32.783019" style="fill: #212121; stroke: #212121; stroke-width: 0.5"/>
      </g>
     </g>
    </g>
    <g id="ytick_25">
     <g id="line2d_33">
      <g>
       <use xlink:href="#m6e5e93b101" x="29.466875" y="31.907523" style="fill: #212121; stroke: #212121; stroke-width: 0.5"/>
      </g>
     </g>
    </g>
    <g id="ytick_26">
     <g id="line2d_34">
      <g>
       <use xlink:href="#m6e5e93b101" x="29.466875" y="31.135281" style="fill: #212121; stroke: #212121; stroke-width: 0.5"/>
      </g>
     </g>
    </g>
    <g id="ytick_27">
     <g id="line2d_35">
      <g>
       <use xlink:href="#m6e5e93b101" x="29.466875" y="25.899882" style="fill: #212121; stroke: #212121; stroke-width: 0.5"/>
      </g>
     </g>
    </g>
    <g id="ytick_28">
     <g id="line2d_36">
      <g>
       <use xlink:href="#m6e5e93b101" x="29.466875" y="23.241458" style="fill: #212121; stroke: #212121; stroke-width: 0.5"/>
      </g>
     </g>
    </g>
    <g id="ytick_29">
     <g id="line2d_37">
      <g>
       <use xlink:href="#m6e5e93b101" x="29.466875" y="21.355276" style="fill: #212121; stroke: #212121; stroke-width: 0.5"/>
      </g>
     </g>
    </g>
    <g id="ytick_30">
     <g id="line2d_38">
      <g>
       <use xlink:href="#m6e5e93b101" x="29.466875" y="19.89224" style="fill: #212121; stroke: #212121; stroke-width: 0.5"/>
      </g>
     </g>
    </g>
    <g id="ytick_31">
     <g id="line2d_39">
      <g>
       <use xlink:href="#m6e5e93b101" x="29.466875" y="18.696852" style="fill: #212121; stroke: #212121; stroke-width: 0.5"/>
      </g>
     </g>
    </g>
    <g id="ytick_32">
     <g id="line2d_40">
      <g>
       <use xlink:href="#m6e5e93b101" x="29.466875" y="17.686167" style="fill: #212121; stroke: #212121; stroke-width: 0.5"/>
      </g>
     </g>
    </g>
    <g id="ytick_33">
     <g id="line2d_41">
      <g>
       <use xlink:href="#m6e5e93b101" x="29.466875" y="16.810671" style="fill: #212121; stroke: #212121; stroke-width: 0.5"/>
      </g>
     </g>
    </g>
    <g id="ytick_34">
     <g id="line2d_42">
      <g>
       <use xlink:href="#m6e5e93b101" x="29.466875" y="16.038429" style="fill: #212121; stroke: #212121; stroke-width: 0.5"/>
      </g>
     </g>
    </g>
    <g id="ytick_35">
     <g id="line2d_43">
      <g>
       <use xlink:href="#m6e5e93b101" x="29.466875" y="10.803029" style="fill: #212121; stroke: #212121; stroke-width: 0.5"/>
      </g>
     </g>
    </g>
    <g id="ytick_36">
     <g id="line2d_44">
      <g>
       <use xlink:href="#m6e5e93b101" x="29.466875" y="8.144605" style="fill: #212121; stroke: #212121; stroke-width: 0.5"/>
      </g>
     </g>
    </g>
    <g id="ytick_37">
     <g id="line2d_45">
      <g>
       <use xlink:href="#m6e5e93b101" x="29.466875" y="6.258424" style="fill: #212121; stroke: #212121; stroke-width: 0.5"/>
      </g>
     </g>
    </g>
    <g id="ytick_38">
     <g id="line2d_46">
      <g>
       <use xlink:href="#m6e5e93b101" x="29.466875" y="4.795388" style="fill: #212121; stroke: #212121; stroke-width: 0.5"/>
      </g>
     </g>
    </g>
    <g id="ytick_39">
     <g id="line2d_47">
      <g>
       <use xlink:href="#m6e5e93b101" x="29.466875" y="3.6" style="fill: #212121; stroke: #212121; stroke-width: 0.5"/>
      </g>
     </g>
    </g>
    <g id="text_14">
     <!-- Tasks / Second -->
     <g style="fill: #212121" transform="translate(8.159063 57.120417) rotate(-90) scale(0.06 -0.06)">
      <defs>
       <path id="DejaVuSans-54" d="M -19 4666 
L 3928 4666 
L 3928 4134 
L 2272 4134 
L 2272 0 
L 1638 0 
L 1638 4134 
L -19 4134 
L -19 4666 
z
" transform="scale(0.015625)"/>
       <path id="DejaVuSans-61" d="M 2194 1759 
Q 1497 1759 1228 1600 
Q 959 1441 959 1056 
Q 959 750 1161 570 
Q 1363 391 1709 391 
Q 2188 391 2477 730 
Q 2766 1069 2766 1631 
L 2766 1759 
L 2194 1759 
z
M 3341 1997 
L 3341 0 
L 2766 0 
L 2766 531 
Q 2569 213 2275 61 
Q 1981 -91 1556 -91 
Q 1019 -91 701 211 
Q 384 513 384 1019 
Q 384 1609 779 1909 
Q 1175 2209 1959 2209 
L 2766 2209 
L 2766 2266 
Q 2766 2663 2505 2880 
Q 2244 3097 1772 3097 
Q 1472 3097 1187 3025 
Q 903 2953 641 2809 
L 641 3341 
Q 956 3463 1253 3523 
Q 1550 3584 1831 3584 
Q 2591 3584 2966 3190 
Q 3341 2797 3341 1997 
z
" transform="scale(0.015625)"/>
       <path id="DejaVuSans-20" transform="scale(0.015625)"/>
       <path id="DejaVuSans-2f" d="M 1625 4666 
L 2156 4666 
L 531 -594 
L 0 -594 
L 1625 4666 
z
" transform="scale(0.015625)"/>
       <path id="DejaVuSans-53" d="M 3425 4513 
L 3425 3897 
Q 3066 4069 2747 4153 
Q 2428 4238 2131 4238 
Q 1616 4238 1336 4038 
Q 1056 3838 1056 3469 
Q 1056 3159 1242 3001 
Q 1428 2844 1947 2747 
L 2328 2669 
Q 3034 2534 3370 2195 
Q 3706 1856 3706 1288 
Q 3706 609 3251 259 
Q 2797 -91 1919 -91 
Q 1588 -91 1214 -16 
Q 841 59 441 206 
L 441 856 
Q 825 641 1194 531 
Q 1563 422 1919 422 
Q 2459 422 2753 634 
Q 3047 847 3047 1241 
Q 3047 1584 2836 1778 
Q 2625 1972 2144 2069 
L 1759 2144 
Q 1053 2284 737 2584 
Q 422 2884 422 3419 
Q 422 4038 858 4394 
Q 1294 4750 2059 4750 
Q 2388 4750 2728 4690 
Q 3069 4631 3425 4513 
z
" transform="scale(0.015625)"/>
       <path id="DejaVuSans-63" d="M 3122 3366 
L 3122 2828 
Q 2878 2963 2633 3030 
Q 2388 3097 2138 3097 
Q 1578 3097 1268 2742 
Q 959 2388 959 1747 
Q 959 1106 1268 751 
Q 1578 397 2138 397 
Q 2388 397 2633 464 
Q 2878 531 3122 666 
L 3122 134 
Q 2881 22 2623 -34 
Q 2366 -91 2075 -91 
Q 1284 -91 818 406 
Q 353 903 353 1747 
Q 353 2603 823 3093 
Q 1294 3584 2113 3584 
Q 2378 3584 2631 3529 
Q 2884 3475 3122 3366 
z
" transform="scale(0.015625)"/>
       <path id="DejaVuSans-6e" d="M 3513 2113 
L 3513 0 
L 2938 0 
L 2938 2094 
Q 2938 2591 2744 2837 
Q 2550 3084 2163 3084 
Q 1697 3084 1428 2787 
Q 1159 2491 1159 1978 
L 1159 0 
L 581 0 
L 581 3500 
L 1159 3500 
L 1159 2956 
Q 1366 3272 1645 3428 
Q 1925 3584 2291 3584 
Q 2894 3584 3203 3211 
Q 3513 2838 3513 2113 
z
" transform="scale(0.015625)"/>
       <path id="DejaVuSans-64" d="M 2906 2969 
L 2906 4863 
L 3481 4863 
L 3481 0 
L 2906 0 
L 2906 525 
Q 2725 213 2448 61 
Q 2172 -91 1784 -91 
Q 1150 -91 751 415 
Q 353 922 353 1747 
Q 353 2572 751 3078 
Q 1150 3584 1784 3584 
Q 2172 3584 2448 3432 
Q 2725 3281 2906 2969 
z
M 947 1747 
Q 947 1113 1208 752 
Q 1469 391 1925 391 
Q 2381 391 2643 752 
Q 2906 1113 2906 1747 
Q 2906 2381 2643 2742 
Q 2381 3103 1925 3103 
Q 1469 3103 1208 2742 
Q 947 2381 947 1747 
z
" transform="scale(0.015625)"/>
      </defs>
      <use xlink:href="#DejaVuSans-54"/>
      <use xlink:href="#DejaVuSans-61" x="44.583984"/>
      <use xlink:href="#DejaVuSans-73" x="105.863281"/>
      <use xlink:href="#DejaVuSans-6b" x="157.962891"/>
      <use xlink:href="#DejaVuSans-73" x="215.873047"/>
      <use xlink:href="#DejaVuSans-20" x="267.972656"/>
      <use xlink:href="#DejaVuSans-2f" x="299.759766"/>
      <use xlink:href="#DejaVuSans-20" x="333.451172"/>
      <use xlink:href="#DejaVuSans-53" x="365.238281"/>
      <use xlink:href="#DejaVuSans-65" x="428.714844"/>
      <use xlink:href="#DejaVuSans-63" x="490.238281"/>
      <use xlink:href="#DejaVuSans-6f" x="545.21875"/>
      <use xlink:href="#DejaVuSans-6e" x="606.400391"/>
      <use xlink:href="#DejaVuSans-64" x="669.779297"/>
     </g>
    </g>
   </g>
   <g id="line2d_48">
    <path d="M 39.30062 33.460391 
L 67.397035 28.667618 
L 95.49345 25.174799 
L 123.589864 24.663582 
L 151.686279 24.744548 
L 179.782694 25.64197 
L 207.879108 25.959707 
L 235.975523 27.998754 
" clip-path="url(#p0ffe05a326)" style="fill: none; stroke-dasharray: 5,1,1,1; stroke-dashoffset: 0; stroke: #ef1561"/>
    <defs>
     <path id="md2dedaf5a3" d="M 0 -2.5 
L -2.5 -0 
L -0 2.5 
L 2.5 0 
z
" style="stroke: #ffffff; stroke-width: 0.75; stroke-linejoin: miter"/>
    </defs>
    <g clip-path="url(#p0ffe05a326)">
     <use xlink:href="#md2dedaf5a3" x="39.30062" y="33.460391" style="fill: #ef1561; stroke: #ffffff; stroke-width: 0.75; stroke-linejoin: miter"/>
     <use xlink:href="#md2dedaf5a3" x="67.397035" y="28.667618" style="fill: #ef1561; stroke: #ffffff; stroke-width: 0.75; stroke-linejoin: miter"/>
     <use xlink:href="#md2dedaf5a3" x="95.49345" y="25.174799" style="fill: #ef1561; stroke: #ffffff; stroke-width: 0.75; stroke-linejoin: miter"/>
     <use xlink:href="#md2dedaf5a3" x="123.589864" y="24.663582" style="fill: #ef1561; stroke: #ffffff; stroke-width: 0.75; stroke-linejoin: miter"/>
     <use xlink:href="#md2dedaf5a3" x="151.686279" y="24.744548" style="fill: #ef1561; stroke: #ffffff; stroke-width: 0.75; stroke-linejoin: miter"/>
     <use xlink:href="#md2dedaf5a3" x="179.782694" y="25.64197" style="fill: #ef1561; stroke: #ffffff; stroke-width: 0.75; stroke-linejoin: miter"/>
     <use xlink:href="#md2dedaf5a3" x="207.879108" y="25.959707" style="fill: #ef1561; stroke: #ffffff; stroke-width: 0.75; stroke-linejoin: miter"/>
     <use xlink:href="#md2dedaf5a3" x="235.975523" y="27.998754" style="fill: #ef1561; stroke: #ffffff; stroke-width: 0.75; stroke-linejoin: miter"/>
    </g>
   </g>
   <g id="line2d_49">
    <path d="M 39.30062 58.155911 
L 67.397035 55.602132 
L 95.49345 49.906073 
L 123.589864 46.278947 
L 151.686279 41.447983 
L 179.782694 38.18866 
L 207.879108 36.690347 
L 235.975523 36.732647 
" clip-path="url(#p0ffe05a326)" style="fill: none; stroke-dasharray: 1,1; stroke-dashoffset: 0; stroke: #f89438"/>
    <defs>
     <path id="me76ae7767e" d="M -1.767767 -1.767767 
L -1.767767 1.767767 
L 1.767767 1.767767 
L 1.767767 -1.767767 
z
" style="stroke: #ffffff; stroke-width: 0.75; stroke-linejoin: miter"/>
    </defs>
    <g clip-path="url(#p0ffe05a326)">
     <use xlink:href="#me76ae7767e" x="39.30062" y="58.155911" style="fill: #f89438; stroke: #ffffff; stroke-width: 0.75; stroke-linejoin: miter"/>
     <use xlink:href="#me76ae7767e" x="67.397035" y="55.602132" style="fill: #f89438; stroke: #ffffff; stroke-width: 0.75; stroke-linejoin: miter"/>
     <use xlink:href="#me76ae7767e" x="95.49345" y="49.906073" style="fill: #f89438; stroke: #ffffff; stroke-width: 0.75; stroke-linejoin: miter"/>
     <use xlink:href="#me76ae7767e" x="123.589864" y="46.278947" style="fill: #f89438; stroke: #ffffff; stroke-width: 0.75; stroke-linejoin: miter"/>
     <use xlink:href="#me76ae7767e" x="151.686279" y="41.447983" style="fill: #f89438; stroke: #ffffff; stroke-width: 0.75; stroke-linejoin: miter"/>
     <use xlink:href="#me76ae7767e" x="179.782694" y="38.18866" style="fill: #f89438; stroke: #ffffff; stroke-width: 0.75; stroke-linejoin: miter"/>
     <use xlink:href="#me76ae7767e" x="207.879108" y="36.690347" style="fill: #f89438; stroke: #ffffff; stroke-width: 0.75; stroke-linejoin: miter"/>
     <use xlink:href="#me76ae7767e" x="235.975523" y="36.732647" style="fill: #f89438; stroke: #ffffff; stroke-width: 0.75; stroke-linejoin: miter"/>
    </g>
   </g>
   <g id="line2d_50">
    <path d="M 39.30062 31.617471 
L 67.397035 27.464181 
L 95.49345 23.598633 
L 123.589864 20.69927 
L 151.686279 19.95574 
L 179.782694 18.330071 
L 207.879108 17.904002 
L 235.975523 19.75465 
" clip-path="url(#p0ffe05a326)" style="fill: none; stroke-dasharray: 3,1.25,1.5,1.25; stroke-dashoffset: 0; stroke: #2d5d91"/>
    <defs>
     <path id="m558936960f" d="M -0.833333 2.5 
L 0.833333 2.5 
L 0.833333 0.833333 
L 2.5 0.833333 
L 2.5 -0.833333 
L 0.833333 -0.833333 
L 0.833333 -2.5 
L -0.833333 -2.5 
L -0.833333 -0.833333 
L -2.5 -0.833333 
L -2.5 0.833333 
L -0.833333 0.833333 
z
" style="stroke: #ffffff; stroke-width: 0.75; stroke-linejoin: miter"/>
    </defs>
    <g clip-path="url(#p0ffe05a326)">
     <use xlink:href="#m558936960f" x="39.30062" y="31.617471" style="fill: #2d5d91; stroke: #ffffff; stroke-width: 0.75; stroke-linejoin: miter"/>
     <use xlink:href="#m558936960f" x="67.397035" y="27.464181" style="fill: #2d5d91; stroke: #ffffff; stroke-width: 0.75; stroke-linejoin: miter"/>
     <use xlink:href="#m558936960f" x="95.49345" y="23.598633" style="fill: #2d5d91; stroke: #ffffff; stroke-width: 0.75; stroke-linejoin: miter"/>
     <use xlink:href="#m558936960f" x="123.589864" y="20.69927" style="fill: #2d5d91; stroke: #ffffff; stroke-width: 0.75; stroke-linejoin: miter"/>
     <use xlink:href="#m558936960f" x="151.686279" y="19.95574" style="fill: #2d5d91; stroke: #ffffff; stroke-width: 0.75; stroke-linejoin: miter"/>
     <use xlink:href="#m558936960f" x="179.782694" y="18.330071" style="fill: #2d5d91; stroke: #ffffff; stroke-width: 0.75; stroke-linejoin: miter"/>
     <use xlink:href="#m558936960f" x="207.879108" y="17.904002" style="fill: #2d5d91; stroke: #ffffff; stroke-width: 0.75; stroke-linejoin: miter"/>
     <use xlink:href="#m558936960f" x="235.975523" y="19.75465" style="fill: #2d5d91; stroke: #ffffff; stroke-width: 0.75; stroke-linejoin: miter"/>
    </g>
   </g>
   <g id="line2d_51">
    <path d="M 39.30062 10.691531 
L 67.397035 7.779597 
L 95.49345 6.289523 
L 123.589864 6.382619 
L 151.686279 6.700784 
L 179.782694 7.855172 
L 207.879108 7.914286 
L 235.975523 12.303505 
" clip-path="url(#p0ffe05a326)" style="fill: none; stroke-dasharray: 3,1.25,1.25,1.25,1.25,1.25; stroke-dashoffset: 0; stroke: #ffde57"/>
    <defs>
     <path id="m4830f1c0fc" d="M 0 -2.5 
L -0.883883 -0.883883 
L -2.5 -0 
L -0.883883 0.883883 
L -0 2.5 
L 0.883883 0.883883 
L 2.5 0 
L 0.883883 -0.883883 
z
" style="stroke: #ffffff; stroke-width: 0.75; stroke-linejoin: bevel"/>
    </defs>
    <g clip-path="url(#p0ffe05a326)">
     <use xlink:href="#m4830f1c0fc" x="39.30062" y="10.691531" style="fill: #ffde57; stroke: #ffffff; stroke-width: 0.75; stroke-linejoin: bevel"/>
     <use xlink:href="#m4830f1c0fc" x="67.397035" y="7.779597" style="fill: #ffde57; stroke: #ffffff; stroke-width: 0.75; stroke-linejoin: bevel"/>
     <use xlink:href="#m4830f1c0fc" x="95.49345" y="6.289523" style="fill: #ffde57; stroke: #ffffff; stroke-width: 0.75; stroke-linejoin: bevel"/>
     <use xlink:href="#m4830f1c0fc" x="123.589864" y="6.382619" style="fill: #ffde57; stroke: #ffffff; stroke-width: 0.75; stroke-linejoin: bevel"/>
     <use xlink:href="#m4830f1c0fc" x="151.686279" y="6.700784" style="fill: #ffde57; stroke: #ffffff; stroke-width: 0.75; stroke-linejoin: bevel"/>
     <use xlink:href="#m4830f1c0fc" x="179.782694" y="7.855172" style="fill: #ffde57; stroke: #ffffff; stroke-width: 0.75; stroke-linejoin: bevel"/>
     <use xlink:href="#m4830f1c0fc" x="207.879108" y="7.914286" style="fill: #ffde57; stroke: #ffffff; stroke-width: 0.75; stroke-linejoin: bevel"/>
     <use xlink:href="#m4830f1c0fc" x="235.975523" y="12.303505" style="fill: #ffde57; stroke: #ffffff; stroke-width: 0.75; stroke-linejoin: bevel"/>
    </g>
   </g>
   <g id="line2d_52">
    <path d="M 39.30062 22.052125 
L 67.397035 17.238802 
L 95.49345 15.785015 
L 123.589864 15.510106 
L 151.686279 15.54502 
L 179.782694 15.878123 
L 207.879108 16.26726 
L 235.975523 17.487103 
" clip-path="url(#p0ffe05a326)" style="fill: none; stroke: #028cf0; stroke-linecap: square"/>
    <defs>
     <path id="m97d5719863" d="M 0 2.5 
C 0.663008 2.5 1.29895 2.236584 1.767767 1.767767 
C 2.236584 1.29895 2.5 0.663008 2.5 0 
C 2.5 -0.663008 2.236584 -1.29895 1.767767 -1.767767 
C 1.29895 -2.236584 0.663008 -2.5 0 -2.5 
C -0.663008 -2.5 -1.29895 -2.236584 -1.767767 -1.767767 
C -2.236584 -1.29895 -2.5 -0.663008 -2.5 0 
C -2.5 0.663008 -2.236584 1.29895 -1.767767 1.767767 
C -1.29895 2.236584 -0.663008 2.5 0 2.5 
z
" style="stroke: #ffffff; stroke-width: 0.75"/>
    </defs>
    <g clip-path="url(#p0ffe05a326)">
     <use xlink:href="#m97d5719863" x="39.30062" y="22.052125" style="fill: #028cf0; stroke: #ffffff; stroke-width: 0.75"/>
     <use xlink:href="#m97d5719863" x="67.397035" y="17.238802" style="fill: #028cf0; stroke: #ffffff; stroke-width: 0.75"/>
     <use xlink:href="#m97d5719863" x="95.49345" y="15.785015" style="fill: #028cf0; stroke: #ffffff; stroke-width: 0.75"/>
     <use xlink:href="#m97d5719863" x="123.589864" y="15.510106" style="fill: #028cf0; stroke: #ffffff; stroke-width: 0.75"/>
     <use xlink:href="#m97d5719863" x="151.686279" y="15.54502" style="fill: #028cf0; stroke: #ffffff; stroke-width: 0.75"/>
     <use xlink:href="#m97d5719863" x="179.782694" y="15.878123" style="fill: #028cf0; stroke: #ffffff; stroke-width: 0.75"/>
     <use xlink:href="#m97d5719863" x="207.879108" y="16.26726" style="fill: #028cf0; stroke: #ffffff; stroke-width: 0.75"/>
     <use xlink:href="#m97d5719863" x="235.975523" y="17.487103" style="fill: #028cf0; stroke: #ffffff; stroke-width: 0.75"/>
    </g>
   </g>
   <g id="line2d_53">
    <path d="M 39.30062 29.282599 
L 67.397035 24.830783 
L 95.49345 20.670718 
L 123.589864 20.611186 
L 151.686279 20.875115 
L 179.782694 21.034443 
L 207.879108 21.583302 
L 235.975523 20.833957 
" clip-path="url(#p0ffe05a326)" style="fill: none; stroke-dasharray: 4,1.5; stroke-dashoffset: 0; stroke: #008000"/>
    <defs>
     <path id="m97bd279bbe" d="M -1.25 2.5 
L 0 1.25 
L 1.25 2.5 
L 2.5 1.25 
L 1.25 0 
L 2.5 -1.25 
L 1.25 -2.5 
L 0 -1.25 
L -1.25 -2.5 
L -2.5 -1.25 
L -1.25 0 
L -2.5 1.25 
z
" style="stroke: #ffffff; stroke-width: 0.75; stroke-linejoin: miter"/>
    </defs>
    <g clip-path="url(#p0ffe05a326)">
     <use xlink:href="#m97bd279bbe" x="39.30062" y="29.282599" style="fill: #008000; stroke: #ffffff; stroke-width: 0.75; stroke-linejoin: miter"/>
     <use xlink:href="#m97bd279bbe" x="67.397035" y="24.830783" style="fill: #008000; stroke: #ffffff; stroke-width: 0.75; stroke-linejoin: miter"/>
     <use xlink:href="#m97bd279bbe" x="95.49345" y="20.670718" style="fill: #008000; stroke: #ffffff; stroke-width: 0.75; stroke-linejoin: miter"/>
     <use xlink:href="#m97bd279bbe" x="123.589864" y="20.611186" style="fill: #008000; stroke: #ffffff; stroke-width: 0.75; stroke-linejoin: miter"/>
     <use xlink:href="#m97bd279bbe" x="151.686279" y="20.875115" style="fill: #008000; stroke: #ffffff; stroke-width: 0.75; stroke-linejoin: miter"/>
     <use xlink:href="#m97bd279bbe" x="179.782694" y="21.034443" style="fill: #008000; stroke: #ffffff; stroke-width: 0.75; stroke-linejoin: miter"/>
     <use xlink:href="#m97bd279bbe" x="207.879108" y="21.583302" style="fill: #008000; stroke: #ffffff; stroke-width: 0.75; stroke-linejoin: miter"/>
     <use xlink:href="#m97bd279bbe" x="235.975523" y="20.833957" style="fill: #008000; stroke: #ffffff; stroke-width: 0.75; stroke-linejoin: miter"/>
    </g>
   </g>
   <g id="line2d_54"/>
   <g id="line2d_55"/>
   <g id="line2d_56"/>
   <g id="line2d_57"/>
   <g id="line2d_58"/>
   <g id="line2d_59"/>
   <g id="patch_3">
    <path d="M 29.466875 66.645833 
L 29.466875 3.6 
" style="fill: none; stroke: #212121; stroke-width: 0.5; stroke-linejoin: miter; stroke-linecap: square"/>
   </g>
   <g id="patch_4">
    <path d="M 245.809268 66.645833 
L 245.809268 3.6 
" style="fill: none; stroke: #212121; stroke-width: 0.5; stroke-linejoin: miter; stroke-linecap: square"/>
   </g>
   <g id="patch_5">
    <path d="M 29.466875 66.645833 
L 245.809268 66.645833 
" style="fill: none; stroke: #212121; stroke-width: 0.5; stroke-linejoin: miter; stroke-linecap: square"/>
   </g>
   <g id="patch_6">
    <path d="M 29.466875 3.6 
L 245.809268 3.6 
" style="fill: none; stroke: #212121; stroke-width: 0.5; stroke-linejoin: miter; stroke-linecap: square"/>
   </g>
   <g id="legend_1">
    <g id="patch_7">
     <path d="M 109.310831 64.145833 
L 242.309268 64.145833 
Q 243.309268 64.145833 243.309268 63.145833 
L 243.309268 41.628646 
Q 243.309268 40.628646 242.309268 40.628646 
L 109.310831 40.628646 
Q 108.310831 40.628646 108.310831 41.628646 
L 108.310831 63.145833 
Q 108.310831 64.145833 109.310831 64.145833 
z
" style="fill: #ffffff; opacity: 0.8; stroke: #cccccc; stroke-linejoin: miter"/>
    </g>
    <g id="line2d_60">
     <path d="M 110.310831 44.677865 
L 115.310831 44.677865 
L 120.310831 44.677865 
" style="fill: none; stroke-dasharray: 5,1,1,1; stroke-dashoffset: 0; stroke: #ef1561"/>
     <g>
      <use xlink:href="#md2dedaf5a3" x="115.310831" y="44.677865" style="fill: #ef1561; stroke: #ffffff; stroke-width: 0.75; stroke-linejoin: miter"/>
     </g>
    </g>
    <g id="text_15">
     <!-- Dask -->
     <g style="fill: #212121" transform="translate(124.310831 46.427865) scale(0.05 -0.05)">
      <defs>
       <path id="DejaVuSans-44" d="M 1259 4147 
L 1259 519 
L 2022 519 
Q 2988 519 3436 956 
Q 3884 1394 3884 2338 
Q 3884 3275 3436 3711 
Q 2988 4147 2022 4147 
L 1259 4147 
z
M 628 4666 
L 1925 4666 
Q 3281 4666 3915 4102 
Q 4550 3538 4550 2338 
Q 4550 1131 3912 565 
Q 3275 0 1925 0 
L 628 0 
L 628 4666 
z
" transform="scale(0.015625)"/>
      </defs>
      <use xlink:href="#DejaVuSans-44"/>
      <use xlink:href="#DejaVuSans-61" x="77.001953"/>
      <use xlink:href="#DejaVuSans-73" x="138.28125"/>
      <use xlink:href="#DejaVuSans-6b" x="190.380859"/>
     </g>
    </g>
    <g id="line2d_61">
     <path d="M 110.310831 52.016927 
L 115.310831 52.016927 
L 120.310831 52.016927 
" style="fill: none; stroke-dasharray: 1,1; stroke-dashoffset: 0; stroke: #f89438"/>
     <g>
      <use xlink:href="#me76ae7767e" x="115.310831" y="52.016927" style="fill: #f89438; stroke: #ffffff; stroke-width: 0.75; stroke-linejoin: miter"/>
     </g>
    </g>
    <g id="text_16">
     <!-- Globus Compute -->
     <g style="fill: #212121" transform="translate(124.310831 53.766927) scale(0.05 -0.05)">
      <defs>
       <path id="DejaVuSans-47" d="M 3809 666 
L 3809 1919 
L 2778 1919 
L 2778 2438 
L 4434 2438 
L 4434 434 
Q 4069 175 3628 42 
Q 3188 -91 2688 -91 
Q 1594 -91 976 548 
Q 359 1188 359 2328 
Q 359 3472 976 4111 
Q 1594 4750 2688 4750 
Q 3144 4750 3555 4637 
Q 3966 4525 4313 4306 
L 4313 3634 
Q 3963 3931 3569 4081 
Q 3175 4231 2741 4231 
Q 1884 4231 1454 3753 
Q 1025 3275 1025 2328 
Q 1025 1384 1454 906 
Q 1884 428 2741 428 
Q 3075 428 3337 486 
Q 3600 544 3809 666 
z
" transform="scale(0.015625)"/>
       <path id="DejaVuSans-6c" d="M 603 4863 
L 1178 4863 
L 1178 0 
L 603 0 
L 603 4863 
z
" transform="scale(0.015625)"/>
       <path id="DejaVuSans-62" d="M 3116 1747 
Q 3116 2381 2855 2742 
Q 2594 3103 2138 3103 
Q 1681 3103 1420 2742 
Q 1159 2381 1159 1747 
Q 1159 1113 1420 752 
Q 1681 391 2138 391 
Q 2594 391 2855 752 
Q 3116 1113 3116 1747 
z
M 1159 2969 
Q 1341 3281 1617 3432 
Q 1894 3584 2278 3584 
Q 2916 3584 3314 3078 
Q 3713 2572 3713 1747 
Q 3713 922 3314 415 
Q 2916 -91 2278 -91 
Q 1894 -91 1617 61 
Q 1341 213 1159 525 
L 1159 0 
L 581 0 
L 581 4863 
L 1159 4863 
L 1159 2969 
z
" transform="scale(0.015625)"/>
       <path id="DejaVuSans-75" d="M 544 1381 
L 544 3500 
L 1119 3500 
L 1119 1403 
Q 1119 906 1312 657 
Q 1506 409 1894 409 
Q 2359 409 2629 706 
Q 2900 1003 2900 1516 
L 2900 3500 
L 3475 3500 
L 3475 0 
L 2900 0 
L 2900 538 
Q 2691 219 2414 64 
Q 2138 -91 1772 -91 
Q 1169 -91 856 284 
Q 544 659 544 1381 
z
M 1991 3584 
L 1991 3584 
z
" transform="scale(0.015625)"/>
       <path id="DejaVuSans-43" d="M 4122 4306 
L 4122 3641 
Q 3803 3938 3442 4084 
Q 3081 4231 2675 4231 
Q 1875 4231 1450 3742 
Q 1025 3253 1025 2328 
Q 1025 1406 1450 917 
Q 1875 428 2675 428 
Q 3081 428 3442 575 
Q 3803 722 4122 1019 
L 4122 359 
Q 3791 134 3420 21 
Q 3050 -91 2638 -91 
Q 1578 -91 968 557 
Q 359 1206 359 2328 
Q 359 3453 968 4101 
Q 1578 4750 2638 4750 
Q 3056 4750 3426 4639 
Q 3797 4528 4122 4306 
z
" transform="scale(0.015625)"/>
       <path id="DejaVuSans-6d" d="M 3328 2828 
Q 3544 3216 3844 3400 
Q 4144 3584 4550 3584 
Q 5097 3584 5394 3201 
Q 5691 2819 5691 2113 
L 5691 0 
L 5113 0 
L 5113 2094 
Q 5113 2597 4934 2840 
Q 4756 3084 4391 3084 
Q 3944 3084 3684 2787 
Q 3425 2491 3425 1978 
L 3425 0 
L 2847 0 
L 2847 2094 
Q 2847 2600 2669 2842 
Q 2491 3084 2119 3084 
Q 1678 3084 1418 2786 
Q 1159 2488 1159 1978 
L 1159 0 
L 581 0 
L 581 3500 
L 1159 3500 
L 1159 2956 
Q 1356 3278 1631 3431 
Q 1906 3584 2284 3584 
Q 2666 3584 2933 3390 
Q 3200 3197 3328 2828 
z
" transform="scale(0.015625)"/>
       <path id="DejaVuSans-70" d="M 1159 525 
L 1159 -1331 
L 581 -1331 
L 581 3500 
L 1159 3500 
L 1159 2969 
Q 1341 3281 1617 3432 
Q 1894 3584 2278 3584 
Q 2916 3584 3314 3078 
Q 3713 2572 3713 1747 
Q 3713 922 3314 415 
Q 2916 -91 2278 -91 
Q 1894 -91 1617 61 
Q 1341 213 1159 525 
z
M 3116 1747 
Q 3116 2381 2855 2742 
Q 2594 3103 2138 3103 
Q 1681 3103 1420 2742 
Q 1159 2381 1159 1747 
Q 1159 1113 1420 752 
Q 1681 391 2138 391 
Q 2594 391 2855 752 
Q 3116 1113 3116 1747 
z
" transform="scale(0.015625)"/>
       <path id="DejaVuSans-74" d="M 1172 4494 
L 1172 3500 
L 2356 3500 
L 2356 3053 
L 1172 3053 
L 1172 1153 
Q 1172 725 1289 603 
Q 1406 481 1766 481 
L 2356 481 
L 2356 0 
L 1766 0 
Q 1100 0 847 248 
Q 594 497 594 1153 
L 594 3053 
L 172 3053 
L 172 3500 
L 594 3500 
L 594 4494 
L 1172 4494 
z
" transform="scale(0.015625)"/>
      </defs>
      <use xlink:href="#DejaVuSans-47"/>
      <use xlink:href="#DejaVuSans-6c" x="77.490234"/>
      <use xlink:href="#DejaVuSans-6f" x="105.273438"/>
      <use xlink:href="#DejaVuSans-62" x="166.455078"/>
      <use xlink:href="#DejaVuSans-75" x="229.931641"/>
      <use xlink:href="#DejaVuSans-73" x="293.310547"/>
      <use xlink:href="#DejaVuSans-20" x="345.410156"/>
      <use xlink:href="#DejaVuSans-43" x="377.197266"/>
      <use xlink:href="#DejaVuSans-6f" x="447.021484"/>
      <use xlink:href="#DejaVuSans-6d" x="508.203125"/>
      <use xlink:href="#DejaVuSans-70" x="605.615234"/>
      <use xlink:href="#DejaVuSans-75" x="669.091797"/>
      <use xlink:href="#DejaVuSans-74" x="732.470703"/>
      <use xlink:href="#DejaVuSans-65" x="771.679688"/>
     </g>
    </g>
    <g id="line2d_62">
     <path d="M 110.310831 59.35599 
L 115.310831 59.35599 
L 120.310831 59.35599 
" style="fill: none; stroke-dasharray: 3,1.25,1.5,1.25; stroke-dashoffset: 0; stroke: #2d5d91"/>
     <g>
      <use xlink:href="#m558936960f" x="115.310831" y="59.35599" style="fill: #2d5d91; stroke: #ffffff; stroke-width: 0.75; stroke-linejoin: miter"/>
     </g>
    </g>
    <g id="text_17">
     <!-- Parsl -->
     <g style="fill: #212121" transform="translate(124.310831 61.10599) scale(0.05 -0.05)">
      <defs>
       <path id="DejaVuSans-50" d="M 1259 4147 
L 1259 2394 
L 2053 2394 
Q 2494 2394 2734 2622 
Q 2975 2850 2975 3272 
Q 2975 3691 2734 3919 
Q 2494 4147 2053 4147 
L 1259 4147 
z
M 628 4666 
L 2053 4666 
Q 2838 4666 3239 4311 
Q 3641 3956 3641 3272 
Q 3641 2581 3239 2228 
Q 2838 1875 2053 1875 
L 1259 1875 
L 1259 0 
L 628 0 
L 628 4666 
z
" transform="scale(0.015625)"/>
      </defs>
      <use xlink:href="#DejaVuSans-50"/>
      <use xlink:href="#DejaVuSans-61" x="55.802734"/>
      <use xlink:href="#DejaVuSans-72" x="117.082031"/>
      <use xlink:href="#DejaVuSans-73" x="158.195312"/>
      <use xlink:href="#DejaVuSans-6c" x="210.294922"/>
     </g>
    </g>
    <g id="line2d_63">
     <path d="M 175.970987 44.677865 
L 180.970987 44.677865 
L 185.970987 44.677865 
" style="fill: none; stroke-dasharray: 3,1.25,1.25,1.25,1.25,1.25; stroke-dashoffset: 0; stroke: #ffde57"/>
     <g>
      <use xlink:href="#m4830f1c0fc" x="180.970987" y="44.677865" style="fill: #ffde57; stroke: #ffffff; stroke-width: 0.75; stroke-linejoin: bevel"/>
     </g>
    </g>
    <g id="text_18">
     <!-- ProcessPoolExecutor -->
     <g style="fill: #212121" transform="translate(189.970987 46.427865) scale(0.05 -0.05)">
      <defs>
       <path id="DejaVuSans-45" d="M 628 4666 
L 3578 4666 
L 3578 4134 
L 1259 4134 
L 1259 2753 
L 3481 2753 
L 3481 2222 
L 1259 2222 
L 1259 531 
L 3634 531 
L 3634 0 
L 628 0 
L 628 4666 
z
" transform="scale(0.015625)"/>
       <path id="DejaVuSans-78" d="M 3513 3500 
L 2247 1797 
L 3578 0 
L 2900 0 
L 1881 1375 
L 863 0 
L 184 0 
L 1544 1831 
L 300 3500 
L 978 3500 
L 1906 2253 
L 2834 3500 
L 3513 3500 
z
" transform="scale(0.015625)"/>
      </defs>
      <use xlink:href="#DejaVuSans-50"/>
      <use xlink:href="#DejaVuSans-72" x="58.552734"/>
      <use xlink:href="#DejaVuSans-6f" x="97.416016"/>
      <use xlink:href="#DejaVuSans-63" x="158.597656"/>
      <use xlink:href="#DejaVuSans-65" x="213.578125"/>
      <use xlink:href="#DejaVuSans-73" x="275.101562"/>
      <use xlink:href="#DejaVuSans-73" x="327.201172"/>
      <use xlink:href="#DejaVuSans-50" x="379.300781"/>
      <use xlink:href="#DejaVuSans-6f" x="435.978516"/>
      <use xlink:href="#DejaVuSans-6f" x="497.160156"/>
      <use xlink:href="#DejaVuSans-6c" x="558.341797"/>
      <use xlink:href="#DejaVuSans-45" x="586.125"/>
      <use xlink:href="#DejaVuSans-78" x="649.308594"/>
      <use xlink:href="#DejaVuSans-65" x="705.363281"/>
      <use xlink:href="#DejaVuSans-63" x="766.886719"/>
      <use xlink:href="#DejaVuSans-75" x="821.867188"/>
      <use xlink:href="#DejaVuSans-74" x="885.246094"/>
      <use xlink:href="#DejaVuSans-6f" x="924.455078"/>
      <use xlink:href="#DejaVuSans-72" x="985.636719"/>
     </g>
    </g>
    <g id="line2d_64">
     <path d="M 175.970987 52.016927 
L 180.970987 52.016927 
L 185.970987 52.016927 
" style="fill: none; stroke: #028cf0; stroke-linecap: square"/>
     <g>
      <use xlink:href="#m97d5719863" x="180.970987" y="52.016927" style="fill: #028cf0; stroke: #ffffff; stroke-width: 0.75"/>
     </g>
    </g>
    <g id="text_19">
     <!-- Ray -->
     <g style="fill: #212121" transform="translate(189.970987 53.766927) scale(0.05 -0.05)">
      <defs>
       <path id="DejaVuSans-52" d="M 2841 2188 
Q 3044 2119 3236 1894 
Q 3428 1669 3622 1275 
L 4263 0 
L 3584 0 
L 2988 1197 
Q 2756 1666 2539 1819 
Q 2322 1972 1947 1972 
L 1259 1972 
L 1259 0 
L 628 0 
L 628 4666 
L 2053 4666 
Q 2853 4666 3247 4331 
Q 3641 3997 3641 3322 
Q 3641 2881 3436 2590 
Q 3231 2300 2841 2188 
z
M 1259 4147 
L 1259 2491 
L 2053 2491 
Q 2509 2491 2742 2702 
Q 2975 2913 2975 3322 
Q 2975 3731 2742 3939 
Q 2509 4147 2053 4147 
L 1259 4147 
z
" transform="scale(0.015625)"/>
       <path id="DejaVuSans-79" d="M 2059 -325 
Q 1816 -950 1584 -1140 
Q 1353 -1331 966 -1331 
L 506 -1331 
L 506 -850 
L 844 -850 
Q 1081 -850 1212 -737 
Q 1344 -625 1503 -206 
L 1606 56 
L 191 3500 
L 800 3500 
L 1894 763 
L 2988 3500 
L 3597 3500 
L 2059 -325 
z
" transform="scale(0.015625)"/>
      </defs>
      <use xlink:href="#DejaVuSans-52"/>
      <use xlink:href="#DejaVuSans-61" x="67.232422"/>
      <use xlink:href="#DejaVuSans-79" x="128.511719"/>
     </g>
    </g>
    <g id="line2d_65">
     <path d="M 175.970987 59.35599 
L 180.970987 59.35599 
L 185.970987 59.35599 
" style="fill: none; stroke-dasharray: 4,1.5; stroke-dashoffset: 0; stroke: #008000"/>
     <g>
      <use xlink:href="#m97bd279bbe" x="180.970987" y="59.35599" style="fill: #008000; stroke: #ffffff; stroke-width: 0.75; stroke-linejoin: miter"/>
     </g>
    </g>
    <g id="text_20">
     <!-- TaskVine -->
     <g style="fill: #212121" transform="translate(189.970987 61.10599) scale(0.05 -0.05)">
      <defs>
       <path id="DejaVuSans-56" d="M 1831 0 
L 50 4666 
L 709 4666 
L 2188 738 
L 3669 4666 
L 4325 4666 
L 2547 0 
L 1831 0 
z
" transform="scale(0.015625)"/>
       <path id="DejaVuSans-69" d="M 603 3500 
L 1178 3500 
L 1178 0 
L 603 0 
L 603 3500 
z
M 603 4863 
L 1178 4863 
L 1178 4134 
L 603 4134 
L 603 4863 
z
" transform="scale(0.015625)"/>
      </defs>
      <use xlink:href="#DejaVuSans-54"/>
      <use xlink:href="#DejaVuSans-61" x="44.583984"/>
      <use xlink:href="#DejaVuSans-73" x="105.863281"/>
      <use xlink:href="#DejaVuSans-6b" x="157.962891"/>
      <use xlink:href="#DejaVuSans-56" x="215.873047"/>
      <use xlink:href="#DejaVuSans-69" x="282.03125"/>
      <use xlink:href="#DejaVuSans-6e" x="309.814453"/>
      <use xlink:href="#DejaVuSans-65" x="373.193359"/>
     </g>
    </g>
   </g>
  </g>
 </g>
 <defs>
  <clipPath id="p0ffe05a326">
   <rect x="29.466875" y="3.6" width="216.342393" height="63.045833"/>
  </clipPath>
 </defs>
</svg>
