<?xml version="1.0" encoding="utf-8" standalone="no"?>
<!DOCTYPE svg PUBLIC "-//W3C//DTD SVG 1.1//EN"
  "http://www.w3.org/Graphics/SVG/1.1/DTD/svg11.dtd">
<svg xmlns:xlink="http://www.w3.org/1999/xlink" width="306.202813pt" height="83.75375pt" viewBox="0 0 306.202813 83.75375" xmlns="http://www.w3.org/2000/svg" version="1.1">
 <metadata>
  <rdf:RDF xmlns:dc="http://purl.org/dc/elements/1.1/" xmlns:cc="http://creativecommons.org/ns#" xmlns:rdf="http://www.w3.org/1999/02/22-rdf-syntax-ns#">
   <cc:Work>
    <dc:type rdf:resource="http://purl.org/dc/dcmitype/StillImage"/>
    <dc:date>2024-08-12T11:55:54.262185</dc:date>
    <dc:format>image/svg+xml</dc:format>
    <dc:creator>
     <cc:Agent>
      <dc:title>Matplotlib v3.9.0, https://matplotlib.org/</dc:title>
     </cc:Agent>
    </dc:creator>
   </cc:Work>
  </rdf:RDF>
 </metadata>
 <defs>
  <style type="text/css">*{stroke-linejoin: round; stroke-linecap: butt}</style>
 </defs>
 <g id="figure_1">
  <g id="patch_1">
   <path d="M 0 83.75375 
L 306.202813 83.75375 
L 306.202813 0 
L 0 0 
z
" style="fill: #ffffff"/>
  </g>
  <g id="axes_1">
   <g id="patch_2">
    <path d="M 29.466875 59.04 
L 216.396875 59.04 
L 216.396875 3.6 
L 29.466875 3.6 
z
" style="fill: #ffffff"/>
   </g>
   <g id="PolyCollection_1">
    <defs>
     <path id="m7528de6f34" d="M 37.963693 -55.292061 
L 37.963693 -55.284018 
L 62.240317 -59.321109 
L 86.51694 -63.001852 
L 110.793563 -62.720598 
L 135.070187 -62.75653 
L 159.34681 -62.72083 
L 183.623433 -62.086453 
L 207.900057 -63.085359 
L 207.900057 -63.244102 
L 207.900057 -63.244102 
L 183.623433 -62.922558 
L 159.34681 -63.191085 
L 135.070187 -63.396161 
L 110.793563 -63.705015 
L 86.51694 -63.564311 
L 62.240317 -59.500169 
L 37.963693 -55.292061 
z
" style="stroke: #008000; stroke-opacity: 0.2"/>
    </defs>
    <g clip-path="url(#pc9722bceb2)">
     <use xlink:href="#m7528de6f34" x="0" y="83.75375" style="fill: #008000; fill-opacity: 0.2; stroke: #008000; stroke-opacity: 0.2"/>
    </g>
   </g>
   <g id="PolyCollection_2">
    <defs>
     <path id="mbba732b4d3" d="M 37.963693 -62.960496 
L 37.963693 -61.44341 
L 62.240317 -65.422367 
L 86.51694 -67.766033 
L 110.793563 -67.748121 
L 135.070187 -67.987506 
L 159.34681 -67.591415 
L 183.623433 -67.281601 
L 207.900057 -66.116936 
L 207.900057 -66.461773 
L 207.900057 -66.461773 
L 183.623433 -67.660672 
L 159.34681 -67.872566 
L 135.070187 -68.170858 
L 110.793563 -68.457956 
L 86.51694 -67.912718 
L 62.240317 -67.175912 
L 37.963693 -62.960496 
z
" style="stroke: #028cf0; stroke-opacity: 0.2"/>
    </defs>
    <g clip-path="url(#pc9722bceb2)">
     <use xlink:href="#mbba732b4d3" x="0" y="83.75375" style="fill: #028cf0; fill-opacity: 0.2; stroke: #028cf0; stroke-opacity: 0.2"/>
    </g>
   </g>
   <g id="PolyCollection_3">
    <defs>
     <path id="m093e1b52a1" d="M 37.963693 -73.132866 
L 37.963693 -71.834822 
L 62.240317 -74.984923 
L 86.51694 -76.366979 
L 110.793563 -76.205099 
L 135.070187 -75.602295 
L 159.34681 -73.899867 
L 183.623433 -75.002653 
L 207.900057 -69.250109 
L 207.900057 -72.777127 
L 207.900057 -72.777127 
L 183.623433 -75.515199 
L 159.34681 -76.212472 
L 135.070187 -76.96864 
L 110.793563 -76.864822 
L 86.51694 -76.979852 
L 62.240317 -75.723775 
L 37.963693 -73.132866 
z
" style="stroke: #ffde57; stroke-opacity: 0.2"/>
    </defs>
    <g clip-path="url(#pc9722bceb2)">
     <use xlink:href="#m093e1b52a1" x="0" y="83.75375" style="fill: #ffde57; fill-opacity: 0.2; stroke: #ffde57; stroke-opacity: 0.2"/>
    </g>
   </g>
   <g id="PolyCollection_4">
    <defs>
     <path id="mdafd83c3f5" d="M 37.963693 -53.174702 
L 37.963693 -53.075275 
L 62.240317 -56.908151 
L 86.51694 -60.50943 
L 110.793563 -63.111758 
L 135.070187 -63.579413 
L 159.34681 -65.387845 
L 183.623433 -65.830251 
L 207.900057 -63.81451 
L 207.900057 -64.718133 
L 207.900057 -64.718133 
L 183.623433 -65.958018 
L 159.34681 -65.571158 
L 135.070187 -64.663805 
L 110.793563 -63.460071 
L 86.51694 -60.638483 
L 62.240317 -57.09957 
L 37.963693 -53.174702 
z
" style="stroke: #2d5d91; stroke-opacity: 0.2"/>
    </defs>
    <g clip-path="url(#pc9722bceb2)">
     <use xlink:href="#mdafd83c3f5" x="0" y="83.75375" style="fill: #2d5d91; fill-opacity: 0.2; stroke: #2d5d91; stroke-opacity: 0.2"/>
    </g>
   </g>
   <g id="PolyCollection_5">
    <defs>
     <path id="md021c565c3" d="M 37.963693 -29.938678 
L 37.963693 -25.999095 
L 62.240317 -30.170877 
L 86.51694 -34.773908 
L 110.793563 -38.672814 
L 135.070187 -42.768869 
L 159.34681 -46.880418 
L 183.623433 -48.227511 
L 207.900057 -48.217922 
L 207.900057 -48.449833 
L 207.900057 -48.449833 
L 183.623433 -48.497704 
L 159.34681 -47.185204 
L 135.070187 -44.490656 
L 110.793563 -40.69822 
L 86.51694 -37.641622 
L 62.240317 -31.811417 
L 37.963693 -29.938678 
z
" style="stroke: #f89438; stroke-opacity: 0.2"/>
    </defs>
    <g clip-path="url(#pc9722bceb2)">
     <use xlink:href="#md021c565c3" x="0" y="83.75375" style="fill: #f89438; fill-opacity: 0.2; stroke: #f89438; stroke-opacity: 0.2"/>
    </g>
   </g>
   <g id="PolyCollection_6">
    <defs>
     <path id="m7b44f70ca5" d="M 37.963693 -51.3995 
L 37.963693 -51.389341 
L 62.240317 -55.758517 
L 86.51694 -58.945595 
L 110.793563 -59.47021 
L 135.070187 -59.296934 
L 159.34681 -58.543924 
L 183.623433 -58.247091 
L 207.900057 -56.133117 
L 207.900057 -56.689528 
L 207.900057 -56.689528 
L 183.623433 -58.506789 
L 159.34681 -58.83075 
L 135.070187 -59.639153 
L 110.793563 -59.758587 
L 86.51694 -59.279617 
L 62.240317 -55.952605 
L 37.963693 -51.3995 
z
" style="stroke: #ef1561; stroke-opacity: 0.2"/>
    </defs>
    <g clip-path="url(#pc9722bceb2)">
     <use xlink:href="#m7b44f70ca5" x="0" y="83.75375" style="fill: #ef1561; fill-opacity: 0.2; stroke: #ef1561; stroke-opacity: 0.2"/>
    </g>
   </g>
   <g id="matplotlib.axis_1">
    <g id="xtick_1">
     <g id="line2d_1">
      <defs>
       <path id="m2a3b7daf7c" d="M 0 0 
L 0 2 
" style="stroke: #212121; stroke-width: 0.5"/>
      </defs>
      <g>
       <use xlink:href="#m2a3b7daf7c" x="37.963693" y="59.04" style="fill: #212121; stroke: #212121; stroke-width: 0.5"/>
      </g>
     </g>
     <g id="text_1">
      <!-- 1 -->
      <g style="fill: #212121" transform="translate(36.054943 69.099063) scale(0.06 -0.06)">
       <defs>
        <path id="DejaVuSans-31" d="M 794 531 
L 1825 531 
L 1825 4091 
L 703 3866 
L 703 4441 
L 1819 4666 
L 2450 4666 
L 2450 531 
L 3481 531 
L 3481 0 
L 794 0 
L 794 531 
z
" transform="scale(0.015625)"/>
       </defs>
       <use xlink:href="#DejaVuSans-31"/>
      </g>
     </g>
    </g>
    <g id="xtick_2">
     <g id="line2d_2">
      <g>
       <use xlink:href="#m2a3b7daf7c" x="62.240317" y="59.04" style="fill: #212121; stroke: #212121; stroke-width: 0.5"/>
      </g>
     </g>
     <g id="text_2">
      <!-- 2 -->
      <g style="fill: #212121" transform="translate(60.331567 69.099063) scale(0.06 -0.06)">
       <defs>
        <path id="DejaVuSans-32" d="M 1228 531 
L 3431 531 
L 3431 0 
L 469 0 
L 469 531 
Q 828 903 1448 1529 
Q 2069 2156 2228 2338 
Q 2531 2678 2651 2914 
Q 2772 3150 2772 3378 
Q 2772 3750 2511 3984 
Q 2250 4219 1831 4219 
Q 1534 4219 1204 4116 
Q 875 4013 500 3803 
L 500 4441 
Q 881 4594 1212 4672 
Q 1544 4750 1819 4750 
Q 2544 4750 2975 4387 
Q 3406 4025 3406 3419 
Q 3406 3131 3298 2873 
Q 3191 2616 2906 2266 
Q 2828 2175 2409 1742 
Q 1991 1309 1228 531 
z
" transform="scale(0.015625)"/>
       </defs>
       <use xlink:href="#DejaVuSans-32"/>
      </g>
     </g>
    </g>
    <g id="xtick_3">
     <g id="line2d_3">
      <g>
       <use xlink:href="#m2a3b7daf7c" x="86.51694" y="59.04" style="fill: #212121; stroke: #212121; stroke-width: 0.5"/>
      </g>
     </g>
     <g id="text_3">
      <!-- 4 -->
      <g style="fill: #212121" transform="translate(84.60819 69.099063) scale(0.06 -0.06)">
       <defs>
        <path id="DejaVuSans-34" d="M 2419 4116 
L 825 1625 
L 2419 1625 
L 2419 4116 
z
M 2253 4666 
L 3047 4666 
L 3047 1625 
L 3713 1625 
L 3713 1100 
L 3047 1100 
L 3047 0 
L 2419 0 
L 2419 1100 
L 313 1100 
L 313 1709 
L 2253 4666 
z
" transform="scale(0.015625)"/>
       </defs>
       <use xlink:href="#DejaVuSans-34"/>
      </g>
     </g>
    </g>
    <g id="xtick_4">
     <g id="line2d_4">
      <g>
       <use xlink:href="#m2a3b7daf7c" x="110.793563" y="59.04" style="fill: #212121; stroke: #212121; stroke-width: 0.5"/>
      </g>
     </g>
     <g id="text_4">
      <!-- 8 -->
      <g style="fill: #212121" transform="translate(108.884813 69.099063) scale(0.06 -0.06)">
       <defs>
        <path id="DejaVuSans-38" d="M 2034 2216 
Q 1584 2216 1326 1975 
Q 1069 1734 1069 1313 
Q 1069 891 1326 650 
Q 1584 409 2034 409 
Q 2484 409 2743 651 
Q 3003 894 3003 1313 
Q 3003 1734 2745 1975 
Q 2488 2216 2034 2216 
z
M 1403 2484 
Q 997 2584 770 2862 
Q 544 3141 544 3541 
Q 544 4100 942 4425 
Q 1341 4750 2034 4750 
Q 2731 4750 3128 4425 
Q 3525 4100 3525 3541 
Q 3525 3141 3298 2862 
Q 3072 2584 2669 2484 
Q 3125 2378 3379 2068 
Q 3634 1759 3634 1313 
Q 3634 634 3220 271 
Q 2806 -91 2034 -91 
Q 1263 -91 848 271 
Q 434 634 434 1313 
Q 434 1759 690 2068 
Q 947 2378 1403 2484 
z
M 1172 3481 
Q 1172 3119 1398 2916 
Q 1625 2713 2034 2713 
Q 2441 2713 2670 2916 
Q 2900 3119 2900 3481 
Q 2900 3844 2670 4047 
Q 2441 4250 2034 4250 
Q 1625 4250 1398 4047 
Q 1172 3844 1172 3481 
z
" transform="scale(0.015625)"/>
       </defs>
       <use xlink:href="#DejaVuSans-38"/>
      </g>
     </g>
    </g>
    <g id="xtick_5">
     <g id="line2d_5">
      <g>
       <use xlink:href="#m2a3b7daf7c" x="135.070187" y="59.04" style="fill: #212121; stroke: #212121; stroke-width: 0.5"/>
      </g>
     </g>
     <g id="text_5">
      <!-- 16 -->
      <g style="fill: #212121" transform="translate(131.252687 69.099063) scale(0.06 -0.06)">
       <defs>
        <path id="DejaVuSans-36" d="M 2113 2584 
Q 1688 2584 1439 2293 
Q 1191 2003 1191 1497 
Q 1191 994 1439 701 
Q 1688 409 2113 409 
Q 2538 409 2786 701 
Q 3034 994 3034 1497 
Q 3034 2003 2786 2293 
Q 2538 2584 2113 2584 
z
M 3366 4563 
L 3366 3988 
Q 3128 4100 2886 4159 
Q 2644 4219 2406 4219 
Q 1781 4219 1451 3797 
Q 1122 3375 1075 2522 
Q 1259 2794 1537 2939 
Q 1816 3084 2150 3084 
Q 2853 3084 3261 2657 
Q 3669 2231 3669 1497 
Q 3669 778 3244 343 
Q 2819 -91 2113 -91 
Q 1303 -91 875 529 
Q 447 1150 447 2328 
Q 447 3434 972 4092 
Q 1497 4750 2381 4750 
Q 2619 4750 2861 4703 
Q 3103 4656 3366 4563 
z
" transform="scale(0.015625)"/>
       </defs>
       <use xlink:href="#DejaVuSans-31"/>
       <use xlink:href="#DejaVuSans-36" x="63.623047"/>
      </g>
     </g>
    </g>
    <g id="xtick_6">
     <g id="line2d_6">
      <g>
       <use xlink:href="#m2a3b7daf7c" x="159.34681" y="59.04" style="fill: #212121; stroke: #212121; stroke-width: 0.5"/>
      </g>
     </g>
     <g id="text_6">
      <!-- 32 -->
      <g style="fill: #212121" transform="translate(155.52931 69.099063) scale(0.06 -0.06)">
       <defs>
        <path id="DejaVuSans-33" d="M 2597 2516 
Q 3050 2419 3304 2112 
Q 3559 1806 3559 1356 
Q 3559 666 3084 287 
Q 2609 -91 1734 -91 
Q 1441 -91 1130 -33 
Q 819 25 488 141 
L 488 750 
Q 750 597 1062 519 
Q 1375 441 1716 441 
Q 2309 441 2620 675 
Q 2931 909 2931 1356 
Q 2931 1769 2642 2001 
Q 2353 2234 1838 2234 
L 1294 2234 
L 1294 2753 
L 1863 2753 
Q 2328 2753 2575 2939 
Q 2822 3125 2822 3475 
Q 2822 3834 2567 4026 
Q 2313 4219 1838 4219 
Q 1578 4219 1281 4162 
Q 984 4106 628 3988 
L 628 4550 
Q 988 4650 1302 4700 
Q 1616 4750 1894 4750 
Q 2613 4750 3031 4423 
Q 3450 4097 3450 3541 
Q 3450 3153 3228 2886 
Q 3006 2619 2597 2516 
z
" transform="scale(0.015625)"/>
       </defs>
       <use xlink:href="#DejaVuSans-33"/>
       <use xlink:href="#DejaVuSans-32" x="63.623047"/>
      </g>
     </g>
    </g>
    <g id="xtick_7">
     <g id="line2d_7">
      <g>
       <use xlink:href="#m2a3b7daf7c" x="183.623433" y="59.04" style="fill: #212121; stroke: #212121; stroke-width: 0.5"/>
      </g>
     </g>
     <g id="text_7">
      <!-- 64 -->
      <g style="fill: #212121" transform="translate(179.805933 69.099063) scale(0.06 -0.06)">
       <use xlink:href="#DejaVuSans-36"/>
       <use xlink:href="#DejaVuSans-34" x="63.623047"/>
      </g>
     </g>
    </g>
    <g id="xtick_8">
     <g id="line2d_8">
      <g>
       <use xlink:href="#m2a3b7daf7c" x="207.900057" y="59.04" style="fill: #212121; stroke: #212121; stroke-width: 0.5"/>
      </g>
     </g>
     <g id="text_8">
      <!-- 128 -->
      <g style="fill: #212121" transform="translate(202.173807 69.099063) scale(0.06 -0.06)">
       <use xlink:href="#DejaVuSans-31"/>
       <use xlink:href="#DejaVuSans-32" x="63.623047"/>
       <use xlink:href="#DejaVuSans-38" x="127.246094"/>
      </g>
     </g>
    </g>
    <g id="text_9">
     <!-- Workers -->
     <g style="fill: #212121" transform="translate(110.8025 78.905937) scale(0.06 -0.06)">
      <defs>
       <path id="DejaVuSans-57" d="M 213 4666 
L 850 4666 
L 1831 722 
L 2809 4666 
L 3519 4666 
L 4500 722 
L 5478 4666 
L 6119 4666 
L 4947 0 
L 4153 0 
L 3169 4050 
L 2175 0 
L 1381 0 
L 213 4666 
z
" transform="scale(0.015625)"/>
       <path id="DejaVuSans-6f" d="M 1959 3097 
Q 1497 3097 1228 2736 
Q 959 2375 959 1747 
Q 959 1119 1226 758 
Q 1494 397 1959 397 
Q 2419 397 2687 759 
Q 2956 1122 2956 1747 
Q 2956 2369 2687 2733 
Q 2419 3097 1959 3097 
z
M 1959 3584 
Q 2709 3584 3137 3096 
Q 3566 2609 3566 1747 
Q 3566 888 3137 398 
Q 2709 -91 1959 -91 
Q 1206 -91 779 398 
Q 353 888 353 1747 
Q 353 2609 779 3096 
Q 1206 3584 1959 3584 
z
" transform="scale(0.015625)"/>
       <path id="DejaVuSans-72" d="M 2631 2963 
Q 2534 3019 2420 3045 
Q 2306 3072 2169 3072 
Q 1681 3072 1420 2755 
Q 1159 2438 1159 1844 
L 1159 0 
L 581 0 
L 581 3500 
L 1159 3500 
L 1159 2956 
Q 1341 3275 1631 3429 
Q 1922 3584 2338 3584 
Q 2397 3584 2469 3576 
Q 2541 3569 2628 3553 
L 2631 2963 
z
" transform="scale(0.015625)"/>
       <path id="DejaVuSans-6b" d="M 581 4863 
L 1159 4863 
L 1159 1991 
L 2875 3500 
L 3609 3500 
L 1753 1863 
L 3688 0 
L 2938 0 
L 1159 1709 
L 1159 0 
L 581 0 
L 581 4863 
z
" transform="scale(0.015625)"/>
       <path id="DejaVuSans-65" d="M 3597 1894 
L 3597 1613 
L 953 1613 
Q 991 1019 1311 708 
Q 1631 397 2203 397 
Q 2534 397 2845 478 
Q 3156 559 3463 722 
L 3463 178 
Q 3153 47 2828 -22 
Q 2503 -91 2169 -91 
Q 1331 -91 842 396 
Q 353 884 353 1716 
Q 353 2575 817 3079 
Q 1281 3584 2069 3584 
Q 2775 3584 3186 3129 
Q 3597 2675 3597 1894 
z
M 3022 2063 
Q 3016 2534 2758 2815 
Q 2500 3097 2075 3097 
Q 1594 3097 1305 2825 
Q 1016 2553 972 2059 
L 3022 2063 
z
" transform="scale(0.015625)"/>
       <path id="DejaVuSans-73" d="M 2834 3397 
L 2834 2853 
Q 2591 2978 2328 3040 
Q 2066 3103 1784 3103 
Q 1356 3103 1142 2972 
Q 928 2841 928 2578 
Q 928 2378 1081 2264 
Q 1234 2150 1697 2047 
L 1894 2003 
Q 2506 1872 2764 1633 
Q 3022 1394 3022 966 
Q 3022 478 2636 193 
Q 2250 -91 1575 -91 
Q 1294 -91 989 -36 
Q 684 19 347 128 
L 347 722 
Q 666 556 975 473 
Q 1284 391 1588 391 
Q 1994 391 2212 530 
Q 2431 669 2431 922 
Q 2431 1156 2273 1281 
Q 2116 1406 1581 1522 
L 1381 1569 
Q 847 1681 609 1914 
Q 372 2147 372 2553 
Q 372 3047 722 3315 
Q 1072 3584 1716 3584 
Q 2034 3584 2315 3537 
Q 2597 3491 2834 3397 
z
" transform="scale(0.015625)"/>
      </defs>
      <use xlink:href="#DejaVuSans-57"/>
      <use xlink:href="#DejaVuSans-6f" x="93.001953"/>
      <use xlink:href="#DejaVuSans-72" x="154.183594"/>
      <use xlink:href="#DejaVuSans-6b" x="195.296875"/>
      <use xlink:href="#DejaVuSans-65" x="249.582031"/>
      <use xlink:href="#DejaVuSans-72" x="311.105469"/>
      <use xlink:href="#DejaVuSans-73" x="352.21875"/>
     </g>
    </g>
   </g>
   <g id="matplotlib.axis_2">
    <g id="ytick_1">
     <g id="line2d_9">
      <defs>
       <path id="mbfdfc13a39" d="M 0 0 
L -2 0 
" style="stroke: #212121; stroke-width: 0.5"/>
      </defs>
      <g>
       <use xlink:href="#mbfdfc13a39" x="29.466875" y="57.677067" style="fill: #212121; stroke: #212121; stroke-width: 0.5"/>
      </g>
     </g>
     <g id="text_10">
      <!-- $\mathdefault{10^{0}}$ -->
      <g style="fill: #212121" transform="translate(13.406875 59.956599) scale(0.06 -0.06)">
       <defs>
        <path id="DejaVuSans-30" d="M 2034 4250 
Q 1547 4250 1301 3770 
Q 1056 3291 1056 2328 
Q 1056 1369 1301 889 
Q 1547 409 2034 409 
Q 2525 409 2770 889 
Q 3016 1369 3016 2328 
Q 3016 3291 2770 3770 
Q 2525 4250 2034 4250 
z
M 2034 4750 
Q 2819 4750 3233 4129 
Q 3647 3509 3647 2328 
Q 3647 1150 3233 529 
Q 2819 -91 2034 -91 
Q 1250 -91 836 529 
Q 422 1150 422 2328 
Q 422 3509 836 4129 
Q 1250 4750 2034 4750 
z
" transform="scale(0.015625)"/>
       </defs>
       <use xlink:href="#DejaVuSans-31" transform="translate(0 0.765625)"/>
       <use xlink:href="#DejaVuSans-30" transform="translate(63.623047 0.765625)"/>
       <use xlink:href="#DejaVuSans-30" transform="translate(128.203125 39.046875) scale(0.7)"/>
      </g>
     </g>
    </g>
    <g id="ytick_2">
     <g id="line2d_10">
      <g>
       <use xlink:href="#mbfdfc13a39" x="29.466875" y="43.613169" style="fill: #212121; stroke: #212121; stroke-width: 0.5"/>
      </g>
     </g>
     <g id="text_11">
      <!-- $\mathdefault{10^{1}}$ -->
      <g style="fill: #212121" transform="translate(13.406875 45.8927) scale(0.06 -0.06)">
       <use xlink:href="#DejaVuSans-31" transform="translate(0 0.684375)"/>
       <use xlink:href="#DejaVuSans-30" transform="translate(63.623047 0.684375)"/>
       <use xlink:href="#DejaVuSans-31" transform="translate(128.203125 38.965625) scale(0.7)"/>
      </g>
     </g>
    </g>
    <g id="ytick_3">
     <g id="line2d_11">
      <g>
       <use xlink:href="#mbfdfc13a39" x="29.466875" y="29.549271" style="fill: #212121; stroke: #212121; stroke-width: 0.5"/>
      </g>
     </g>
     <g id="text_12">
      <!-- $\mathdefault{10^{2}}$ -->
      <g style="fill: #212121" transform="translate(13.406875 31.828802) scale(0.06 -0.06)">
       <use xlink:href="#DejaVuSans-31" transform="translate(0 0.765625)"/>
       <use xlink:href="#DejaVuSans-30" transform="translate(63.623047 0.765625)"/>
       <use xlink:href="#DejaVuSans-32" transform="translate(128.203125 39.046875) scale(0.7)"/>
      </g>
     </g>
    </g>
    <g id="ytick_4">
     <g id="line2d_12">
      <g>
       <use xlink:href="#mbfdfc13a39" x="29.466875" y="15.485373" style="fill: #212121; stroke: #212121; stroke-width: 0.5"/>
      </g>
     </g>
     <g id="text_13">
      <!-- $\mathdefault{10^{3}}$ -->
      <g style="fill: #212121" transform="translate(13.406875 17.764904) scale(0.06 -0.06)">
       <use xlink:href="#DejaVuSans-31" transform="translate(0 0.765625)"/>
       <use xlink:href="#DejaVuSans-30" transform="translate(63.623047 0.765625)"/>
       <use xlink:href="#DejaVuSans-33" transform="translate(128.203125 39.046875) scale(0.7)"/>
      </g>
     </g>
    </g>
    <g id="ytick_5">
     <g id="line2d_13">
      <g>
       <use xlink:href="#mbfdfc13a39" x="29.466875" y="59.04" style="fill: #212121; stroke: #212121; stroke-width: 0.5"/>
      </g>
     </g>
    </g>
    <g id="ytick_6">
     <g id="line2d_14">
      <g>
       <use xlink:href="#mbfdfc13a39" x="29.466875" y="58.320596" style="fill: #212121; stroke: #212121; stroke-width: 0.5"/>
      </g>
     </g>
    </g>
    <g id="ytick_7">
     <g id="line2d_15">
      <g>
       <use xlink:href="#mbfdfc13a39" x="29.466875" y="53.443412" style="fill: #212121; stroke: #212121; stroke-width: 0.5"/>
      </g>
     </g>
    </g>
    <g id="ytick_8">
     <g id="line2d_16">
      <g>
       <use xlink:href="#mbfdfc13a39" x="29.466875" y="50.966883" style="fill: #212121; stroke: #212121; stroke-width: 0.5"/>
      </g>
     </g>
    </g>
    <g id="ytick_9">
     <g id="line2d_17">
      <g>
       <use xlink:href="#mbfdfc13a39" x="29.466875" y="49.209757" style="fill: #212121; stroke: #212121; stroke-width: 0.5"/>
      </g>
     </g>
    </g>
    <g id="ytick_10">
     <g id="line2d_18">
      <g>
       <use xlink:href="#mbfdfc13a39" x="29.466875" y="47.846824" style="fill: #212121; stroke: #212121; stroke-width: 0.5"/>
      </g>
     </g>
    </g>
    <g id="ytick_11">
     <g id="line2d_19">
      <g>
       <use xlink:href="#mbfdfc13a39" x="29.466875" y="46.733227" style="fill: #212121; stroke: #212121; stroke-width: 0.5"/>
      </g>
     </g>
    </g>
    <g id="ytick_12">
     <g id="line2d_20">
      <g>
       <use xlink:href="#mbfdfc13a39" x="29.466875" y="45.791695" style="fill: #212121; stroke: #212121; stroke-width: 0.5"/>
      </g>
     </g>
    </g>
    <g id="ytick_13">
     <g id="line2d_21">
      <g>
       <use xlink:href="#mbfdfc13a39" x="29.466875" y="44.976102" style="fill: #212121; stroke: #212121; stroke-width: 0.5"/>
      </g>
     </g>
    </g>
    <g id="ytick_14">
     <g id="line2d_22">
      <g>
       <use xlink:href="#mbfdfc13a39" x="29.466875" y="44.256698" style="fill: #212121; stroke: #212121; stroke-width: 0.5"/>
      </g>
     </g>
    </g>
    <g id="ytick_15">
     <g id="line2d_23">
      <g>
       <use xlink:href="#mbfdfc13a39" x="29.466875" y="39.379514" style="fill: #212121; stroke: #212121; stroke-width: 0.5"/>
      </g>
     </g>
    </g>
    <g id="ytick_16">
     <g id="line2d_24">
      <g>
       <use xlink:href="#mbfdfc13a39" x="29.466875" y="36.902984" style="fill: #212121; stroke: #212121; stroke-width: 0.5"/>
      </g>
     </g>
    </g>
    <g id="ytick_17">
     <g id="line2d_25">
      <g>
       <use xlink:href="#mbfdfc13a39" x="29.466875" y="35.145859" style="fill: #212121; stroke: #212121; stroke-width: 0.5"/>
      </g>
     </g>
    </g>
    <g id="ytick_18">
     <g id="line2d_26">
      <g>
       <use xlink:href="#mbfdfc13a39" x="29.466875" y="33.782926" style="fill: #212121; stroke: #212121; stroke-width: 0.5"/>
      </g>
     </g>
    </g>
    <g id="ytick_19">
     <g id="line2d_27">
      <g>
       <use xlink:href="#mbfdfc13a39" x="29.466875" y="32.669329" style="fill: #212121; stroke: #212121; stroke-width: 0.5"/>
      </g>
     </g>
    </g>
    <g id="ytick_20">
     <g id="line2d_28">
      <g>
       <use xlink:href="#mbfdfc13a39" x="29.466875" y="31.727796" style="fill: #212121; stroke: #212121; stroke-width: 0.5"/>
      </g>
     </g>
    </g>
    <g id="ytick_21">
     <g id="line2d_29">
      <g>
       <use xlink:href="#mbfdfc13a39" x="29.466875" y="30.912204" style="fill: #212121; stroke: #212121; stroke-width: 0.5"/>
      </g>
     </g>
    </g>
    <g id="ytick_22">
     <g id="line2d_30">
      <g>
       <use xlink:href="#mbfdfc13a39" x="29.466875" y="30.1928" style="fill: #212121; stroke: #212121; stroke-width: 0.5"/>
      </g>
     </g>
    </g>
    <g id="ytick_23">
     <g id="line2d_31">
      <g>
       <use xlink:href="#mbfdfc13a39" x="29.466875" y="25.315616" style="fill: #212121; stroke: #212121; stroke-width: 0.5"/>
      </g>
     </g>
    </g>
    <g id="ytick_24">
     <g id="line2d_32">
      <g>
       <use xlink:href="#mbfdfc13a39" x="29.466875" y="22.839086" style="fill: #212121; stroke: #212121; stroke-width: 0.5"/>
      </g>
     </g>
    </g>
    <g id="ytick_25">
     <g id="line2d_33">
      <g>
       <use xlink:href="#mbfdfc13a39" x="29.466875" y="21.081961" style="fill: #212121; stroke: #212121; stroke-width: 0.5"/>
      </g>
     </g>
    </g>
    <g id="ytick_26">
     <g id="line2d_34">
      <g>
       <use xlink:href="#mbfdfc13a39" x="29.466875" y="19.719028" style="fill: #212121; stroke: #212121; stroke-width: 0.5"/>
      </g>
     </g>
    </g>
    <g id="ytick_27">
     <g id="line2d_35">
      <g>
       <use xlink:href="#mbfdfc13a39" x="29.466875" y="18.605431" style="fill: #212121; stroke: #212121; stroke-width: 0.5"/>
      </g>
     </g>
    </g>
    <g id="ytick_28">
     <g id="line2d_36">
      <g>
       <use xlink:href="#mbfdfc13a39" x="29.466875" y="17.663898" style="fill: #212121; stroke: #212121; stroke-width: 0.5"/>
      </g>
     </g>
    </g>
    <g id="ytick_29">
     <g id="line2d_37">
      <g>
       <use xlink:href="#mbfdfc13a39" x="29.466875" y="16.848305" style="fill: #212121; stroke: #212121; stroke-width: 0.5"/>
      </g>
     </g>
    </g>
    <g id="ytick_30">
     <g id="line2d_38">
      <g>
       <use xlink:href="#mbfdfc13a39" x="29.466875" y="16.128902" style="fill: #212121; stroke: #212121; stroke-width: 0.5"/>
      </g>
     </g>
    </g>
    <g id="ytick_31">
     <g id="line2d_39">
      <g>
       <use xlink:href="#mbfdfc13a39" x="29.466875" y="11.251718" style="fill: #212121; stroke: #212121; stroke-width: 0.5"/>
      </g>
     </g>
    </g>
    <g id="ytick_32">
     <g id="line2d_40">
      <g>
       <use xlink:href="#mbfdfc13a39" x="29.466875" y="8.775188" style="fill: #212121; stroke: #212121; stroke-width: 0.5"/>
      </g>
     </g>
    </g>
    <g id="ytick_33">
     <g id="line2d_41">
      <g>
       <use xlink:href="#mbfdfc13a39" x="29.466875" y="7.018062" style="fill: #212121; stroke: #212121; stroke-width: 0.5"/>
      </g>
     </g>
    </g>
    <g id="ytick_34">
     <g id="line2d_42">
      <g>
       <use xlink:href="#mbfdfc13a39" x="29.466875" y="5.65513" style="fill: #212121; stroke: #212121; stroke-width: 0.5"/>
      </g>
     </g>
    </g>
    <g id="ytick_35">
     <g id="line2d_43">
      <g>
       <use xlink:href="#mbfdfc13a39" x="29.466875" y="4.541533" style="fill: #212121; stroke: #212121; stroke-width: 0.5"/>
      </g>
     </g>
    </g>
    <g id="ytick_36">
     <g id="line2d_44">
      <g>
       <use xlink:href="#mbfdfc13a39" x="29.466875" y="3.6" style="fill: #212121; stroke: #212121; stroke-width: 0.5"/>
      </g>
     </g>
    </g>
    <g id="text_14">
     <!-- Tasks / Second -->
     <g style="fill: #212121" transform="translate(8.159063 53.3175) rotate(-90) scale(0.06 -0.06)">
      <defs>
       <path id="DejaVuSans-54" d="M -19 4666 
L 3928 4666 
L 3928 4134 
L 2272 4134 
L 2272 0 
L 1638 0 
L 1638 4134 
L -19 4134 
L -19 4666 
z
" transform="scale(0.015625)"/>
       <path id="DejaVuSans-61" d="M 2194 1759 
Q 1497 1759 1228 1600 
Q 959 1441 959 1056 
Q 959 750 1161 570 
Q 1363 391 1709 391 
Q 2188 391 2477 730 
Q 2766 1069 2766 1631 
L 2766 1759 
L 2194 1759 
z
M 3341 1997 
L 3341 0 
L 2766 0 
L 2766 531 
Q 2569 213 2275 61 
Q 1981 -91 1556 -91 
Q 1019 -91 701 211 
Q 384 513 384 1019 
Q 384 1609 779 1909 
Q 1175 2209 1959 2209 
L 2766 2209 
L 2766 2266 
Q 2766 2663 2505 2880 
Q 2244 3097 1772 3097 
Q 1472 3097 1187 3025 
Q 903 2953 641 2809 
L 641 3341 
Q 956 3463 1253 3523 
Q 1550 3584 1831 3584 
Q 2591 3584 2966 3190 
Q 3341 2797 3341 1997 
z
" transform="scale(0.015625)"/>
       <path id="DejaVuSans-20" transform="scale(0.015625)"/>
       <path id="DejaVuSans-2f" d="M 1625 4666 
L 2156 4666 
L 531 -594 
L 0 -594 
L 1625 4666 
z
" transform="scale(0.015625)"/>
       <path id="DejaVuSans-53" d="M 3425 4513 
L 3425 3897 
Q 3066 4069 2747 4153 
Q 2428 4238 2131 4238 
Q 1616 4238 1336 4038 
Q 1056 3838 1056 3469 
Q 1056 3159 1242 3001 
Q 1428 2844 1947 2747 
L 2328 2669 
Q 3034 2534 3370 2195 
Q 3706 1856 3706 1288 
Q 3706 609 3251 259 
Q 2797 -91 1919 -91 
Q 1588 -91 1214 -16 
Q 841 59 441 206 
L 441 856 
Q 825 641 1194 531 
Q 1563 422 1919 422 
Q 2459 422 2753 634 
Q 3047 847 3047 1241 
Q 3047 1584 2836 1778 
Q 2625 1972 2144 2069 
L 1759 2144 
Q 1053 2284 737 2584 
Q 422 2884 422 3419 
Q 422 4038 858 4394 
Q 1294 4750 2059 4750 
Q 2388 4750 2728 4690 
Q 3069 4631 3425 4513 
z
" transform="scale(0.015625)"/>
       <path id="DejaVuSans-63" d="M 3122 3366 
L 3122 2828 
Q 2878 2963 2633 3030 
Q 2388 3097 2138 3097 
Q 1578 3097 1268 2742 
Q 959 2388 959 1747 
Q 959 1106 1268 751 
Q 1578 397 2138 397 
Q 2388 397 2633 464 
Q 2878 531 3122 666 
L 3122 134 
Q 2881 22 2623 -34 
Q 2366 -91 2075 -91 
Q 1284 -91 818 406 
Q 353 903 353 1747 
Q 353 2603 823 3093 
Q 1294 3584 2113 3584 
Q 2378 3584 2631 3529 
Q 2884 3475 3122 3366 
z
" transform="scale(0.015625)"/>
       <path id="DejaVuSans-6e" d="M 3513 2113 
L 3513 0 
L 2938 0 
L 2938 2094 
Q 2938 2591 2744 2837 
Q 2550 3084 2163 3084 
Q 1697 3084 1428 2787 
Q 1159 2491 1159 1978 
L 1159 0 
L 581 0 
L 581 3500 
L 1159 3500 
L 1159 2956 
Q 1366 3272 1645 3428 
Q 1925 3584 2291 3584 
Q 2894 3584 3203 3211 
Q 3513 2838 3513 2113 
z
" transform="scale(0.015625)"/>
       <path id="DejaVuSans-64" d="M 2906 2969 
L 2906 4863 
L 3481 4863 
L 3481 0 
L 2906 0 
L 2906 525 
Q 2725 213 2448 61 
Q 2172 -91 1784 -91 
Q 1150 -91 751 415 
Q 353 922 353 1747 
Q 353 2572 751 3078 
Q 1150 3584 1784 3584 
Q 2172 3584 2448 3432 
Q 2725 3281 2906 2969 
z
M 947 1747 
Q 947 1113 1208 752 
Q 1469 391 1925 391 
Q 2381 391 2643 752 
Q 2906 1113 2906 1747 
Q 2906 2381 2643 2742 
Q 2381 3103 1925 3103 
Q 1469 3103 1208 2742 
Q 947 2381 947 1747 
z
" transform="scale(0.015625)"/>
      </defs>
      <use xlink:href="#DejaVuSans-54"/>
      <use xlink:href="#DejaVuSans-61" x="44.583984"/>
      <use xlink:href="#DejaVuSans-73" x="105.863281"/>
      <use xlink:href="#DejaVuSans-6b" x="157.962891"/>
      <use xlink:href="#DejaVuSans-73" x="215.873047"/>
      <use xlink:href="#DejaVuSans-20" x="267.972656"/>
      <use xlink:href="#DejaVuSans-2f" x="299.759766"/>
      <use xlink:href="#DejaVuSans-20" x="333.451172"/>
      <use xlink:href="#DejaVuSans-53" x="365.238281"/>
      <use xlink:href="#DejaVuSans-65" x="428.714844"/>
      <use xlink:href="#DejaVuSans-63" x="490.238281"/>
      <use xlink:href="#DejaVuSans-6f" x="545.21875"/>
      <use xlink:href="#DejaVuSans-6e" x="606.400391"/>
      <use xlink:href="#DejaVuSans-64" x="669.779297"/>
     </g>
    </g>
   </g>
   <g id="line2d_45">
    <path d="M 37.963693 28.466882 
L 62.240317 24.319667 
L 86.51694 20.444241 
L 110.793563 20.388782 
L 135.070187 20.634652 
L 159.34681 20.78308 
L 183.623433 21.294384 
L 207.900057 20.596311 
" clip-path="url(#pc9722bceb2)" style="fill: none; stroke-dasharray: 4,1.5; stroke-dashoffset: 0; stroke: #008000"/>
    <defs>
     <path id="m5a9c83220b" d="M -1.25 2.5 
L 0 1.25 
L 1.25 2.5 
L 2.5 1.25 
L 1.25 0 
L 2.5 -1.25 
L 1.25 -2.5 
L 0 -1.25 
L -1.25 -2.5 
L -2.5 -1.25 
L -1.25 0 
L -2.5 1.25 
z
" style="stroke: #ffffff; stroke-width: 0.75; stroke-linejoin: miter"/>
    </defs>
    <g clip-path="url(#pc9722bceb2)">
     <use xlink:href="#m5a9c83220b" x="37.963693" y="28.466882" style="fill: #008000; stroke: #ffffff; stroke-width: 0.75; stroke-linejoin: miter"/>
     <use xlink:href="#m5a9c83220b" x="62.240317" y="24.319667" style="fill: #008000; stroke: #ffffff; stroke-width: 0.75; stroke-linejoin: miter"/>
     <use xlink:href="#m5a9c83220b" x="86.51694" y="20.444241" style="fill: #008000; stroke: #ffffff; stroke-width: 0.75; stroke-linejoin: miter"/>
     <use xlink:href="#m5a9c83220b" x="110.793563" y="20.388782" style="fill: #008000; stroke: #ffffff; stroke-width: 0.75; stroke-linejoin: miter"/>
     <use xlink:href="#m5a9c83220b" x="135.070187" y="20.634652" style="fill: #008000; stroke: #ffffff; stroke-width: 0.75; stroke-linejoin: miter"/>
     <use xlink:href="#m5a9c83220b" x="159.34681" y="20.78308" style="fill: #008000; stroke: #ffffff; stroke-width: 0.75; stroke-linejoin: miter"/>
     <use xlink:href="#m5a9c83220b" x="183.623433" y="21.294384" style="fill: #008000; stroke: #ffffff; stroke-width: 0.75; stroke-linejoin: miter"/>
     <use xlink:href="#m5a9c83220b" x="207.900057" y="20.596311" style="fill: #008000; stroke: #ffffff; stroke-width: 0.75; stroke-linejoin: miter"/>
    </g>
   </g>
   <g id="line2d_46">
    <path d="M 37.963693 21.73113 
L 62.240317 17.247143 
L 86.51694 15.892827 
L 110.793563 15.636727 
L 135.070187 15.669253 
L 159.34681 15.979564 
L 183.623433 16.342076 
L 207.900057 17.478455 
" clip-path="url(#pc9722bceb2)" style="fill: none; stroke: #028cf0; stroke-linecap: square"/>
    <defs>
     <path id="m7ca20fff86" d="M 0 2.5 
C 0.663008 2.5 1.29895 2.236584 1.767767 1.767767 
C 2.236584 1.29895 2.5 0.663008 2.5 0 
C 2.5 -0.663008 2.236584 -1.29895 1.767767 -1.767767 
C 1.29895 -2.236584 0.663008 -2.5 0 -2.5 
C -0.663008 -2.5 -1.29895 -2.236584 -1.767767 -1.767767 
C -2.236584 -1.29895 -2.5 -0.663008 -2.5 0 
C -2.5 0.663008 -2.236584 1.29895 -1.767767 1.767767 
C -1.29895 2.236584 -0.663008 2.5 0 2.5 
z
" style="stroke: #ffffff; stroke-width: 0.75"/>
    </defs>
    <g clip-path="url(#pc9722bceb2)">
     <use xlink:href="#m7ca20fff86" x="37.963693" y="21.73113" style="fill: #028cf0; stroke: #ffffff; stroke-width: 0.75"/>
     <use xlink:href="#m7ca20fff86" x="62.240317" y="17.247143" style="fill: #028cf0; stroke: #ffffff; stroke-width: 0.75"/>
     <use xlink:href="#m7ca20fff86" x="86.51694" y="15.892827" style="fill: #028cf0; stroke: #ffffff; stroke-width: 0.75"/>
     <use xlink:href="#m7ca20fff86" x="110.793563" y="15.636727" style="fill: #028cf0; stroke: #ffffff; stroke-width: 0.75"/>
     <use xlink:href="#m7ca20fff86" x="135.070187" y="15.669253" style="fill: #028cf0; stroke: #ffffff; stroke-width: 0.75"/>
     <use xlink:href="#m7ca20fff86" x="159.34681" y="15.979564" style="fill: #028cf0; stroke: #ffffff; stroke-width: 0.75"/>
     <use xlink:href="#m7ca20fff86" x="183.623433" y="16.342076" style="fill: #028cf0; stroke: #ffffff; stroke-width: 0.75"/>
     <use xlink:href="#m7ca20fff86" x="207.900057" y="17.478455" style="fill: #028cf0; stroke: #ffffff; stroke-width: 0.75"/>
    </g>
   </g>
   <g id="line2d_47">
    <path d="M 37.963693 11.147849 
L 62.240317 8.435154 
L 86.51694 7.047034 
L 110.793563 7.13376 
L 135.070187 7.430155 
L 159.34681 8.505558 
L 183.623433 8.560627 
L 207.900057 12.649528 
" clip-path="url(#pc9722bceb2)" style="fill: none; stroke-dasharray: 3,1.25,1.25,1.25,1.25,1.25; stroke-dashoffset: 0; stroke: #ffde57"/>
    <defs>
     <path id="m6f8f9465b2" d="M 0 -2.5 
L -0.883883 -0.883883 
L -2.5 -0 
L -0.883883 0.883883 
L -0 2.5 
L 0.883883 0.883883 
L 2.5 0 
L 0.883883 -0.883883 
z
" style="stroke: #ffffff; stroke-width: 0.75; stroke-linejoin: bevel"/>
    </defs>
    <g clip-path="url(#pc9722bceb2)">
     <use xlink:href="#m6f8f9465b2" x="37.963693" y="11.147849" style="fill: #ffde57; stroke: #ffffff; stroke-width: 0.75; stroke-linejoin: bevel"/>
     <use xlink:href="#m6f8f9465b2" x="62.240317" y="8.435154" style="fill: #ffde57; stroke: #ffffff; stroke-width: 0.75; stroke-linejoin: bevel"/>
     <use xlink:href="#m6f8f9465b2" x="86.51694" y="7.047034" style="fill: #ffde57; stroke: #ffffff; stroke-width: 0.75; stroke-linejoin: bevel"/>
     <use xlink:href="#m6f8f9465b2" x="110.793563" y="7.13376" style="fill: #ffde57; stroke: #ffffff; stroke-width: 0.75; stroke-linejoin: bevel"/>
     <use xlink:href="#m6f8f9465b2" x="135.070187" y="7.430155" style="fill: #ffde57; stroke: #ffffff; stroke-width: 0.75; stroke-linejoin: bevel"/>
     <use xlink:href="#m6f8f9465b2" x="159.34681" y="8.505558" style="fill: #ffde57; stroke: #ffffff; stroke-width: 0.75; stroke-linejoin: bevel"/>
     <use xlink:href="#m6f8f9465b2" x="183.623433" y="8.560627" style="fill: #ffde57; stroke: #ffffff; stroke-width: 0.75; stroke-linejoin: bevel"/>
     <use xlink:href="#m6f8f9465b2" x="207.900057" y="12.649528" style="fill: #ffde57; stroke: #ffffff; stroke-width: 0.75; stroke-linejoin: bevel"/>
    </g>
   </g>
   <g id="line2d_48">
    <path d="M 37.963693 30.641998 
L 62.240317 26.772883 
L 86.51694 23.171822 
L 110.793563 20.470839 
L 135.070187 19.778183 
L 159.34681 18.263745 
L 183.623433 17.866829 
L 207.900057 19.590852 
" clip-path="url(#pc9722bceb2)" style="fill: none; stroke-dasharray: 3,1.25,1.5,1.25; stroke-dashoffset: 0; stroke: #2d5d91"/>
    <defs>
     <path id="m35bc4b0560" d="M -0.833333 2.5 
L 0.833333 2.5 
L 0.833333 0.833333 
L 2.5 0.833333 
L 2.5 -0.833333 
L 0.833333 -0.833333 
L 0.833333 -2.5 
L -0.833333 -2.5 
L -0.833333 -0.833333 
L -2.5 -0.833333 
L -2.5 0.833333 
L -0.833333 0.833333 
z
" style="stroke: #ffffff; stroke-width: 0.75; stroke-linejoin: miter"/>
    </defs>
    <g clip-path="url(#pc9722bceb2)">
     <use xlink:href="#m35bc4b0560" x="37.963693" y="30.641998" style="fill: #2d5d91; stroke: #ffffff; stroke-width: 0.75; stroke-linejoin: miter"/>
     <use xlink:href="#m35bc4b0560" x="62.240317" y="26.772883" style="fill: #2d5d91; stroke: #ffffff; stroke-width: 0.75; stroke-linejoin: miter"/>
     <use xlink:href="#m35bc4b0560" x="86.51694" y="23.171822" style="fill: #2d5d91; stroke: #ffffff; stroke-width: 0.75; stroke-linejoin: miter"/>
     <use xlink:href="#m35bc4b0560" x="110.793563" y="20.470839" style="fill: #2d5d91; stroke: #ffffff; stroke-width: 0.75; stroke-linejoin: miter"/>
     <use xlink:href="#m35bc4b0560" x="135.070187" y="19.778183" style="fill: #2d5d91; stroke: #ffffff; stroke-width: 0.75; stroke-linejoin: miter"/>
     <use xlink:href="#m35bc4b0560" x="159.34681" y="18.263745" style="fill: #2d5d91; stroke: #ffffff; stroke-width: 0.75; stroke-linejoin: miter"/>
     <use xlink:href="#m35bc4b0560" x="183.623433" y="17.866829" style="fill: #2d5d91; stroke: #ffffff; stroke-width: 0.75; stroke-linejoin: miter"/>
     <use xlink:href="#m35bc4b0560" x="207.900057" y="19.590852" style="fill: #2d5d91; stroke: #ffffff; stroke-width: 0.75; stroke-linejoin: miter"/>
    </g>
   </g>
   <g id="line2d_49">
    <path d="M 37.963693 55.364629 
L 62.240317 52.985584 
L 86.51694 47.67926 
L 110.793563 44.300308 
L 135.070187 39.799888 
L 159.34681 36.763574 
L 183.623433 35.367778 
L 207.900057 35.407184 
" clip-path="url(#pc9722bceb2)" style="fill: none; stroke-dasharray: 1,1; stroke-dashoffset: 0; stroke: #f89438"/>
    <defs>
     <path id="m97d946bfd1" d="M -1.767767 -1.767767 
L -1.767767 1.767767 
L 1.767767 1.767767 
L 1.767767 -1.767767 
z
" style="stroke: #ffffff; stroke-width: 0.75; stroke-linejoin: miter"/>
    </defs>
    <g clip-path="url(#pc9722bceb2)">
     <use xlink:href="#m97d946bfd1" x="37.963693" y="55.364629" style="fill: #f89438; stroke: #ffffff; stroke-width: 0.75; stroke-linejoin: miter"/>
     <use xlink:href="#m97d946bfd1" x="62.240317" y="52.985584" style="fill: #f89438; stroke: #ffffff; stroke-width: 0.75; stroke-linejoin: miter"/>
     <use xlink:href="#m97d946bfd1" x="86.51694" y="47.67926" style="fill: #f89438; stroke: #ffffff; stroke-width: 0.75; stroke-linejoin: miter"/>
     <use xlink:href="#m97d946bfd1" x="110.793563" y="44.300308" style="fill: #f89438; stroke: #ffffff; stroke-width: 0.75; stroke-linejoin: miter"/>
     <use xlink:href="#m97d946bfd1" x="135.070187" y="39.799888" style="fill: #f89438; stroke: #ffffff; stroke-width: 0.75; stroke-linejoin: miter"/>
     <use xlink:href="#m97d946bfd1" x="159.34681" y="36.763574" style="fill: #f89438; stroke: #ffffff; stroke-width: 0.75; stroke-linejoin: miter"/>
     <use xlink:href="#m97d946bfd1" x="183.623433" y="35.367778" style="fill: #f89438; stroke: #ffffff; stroke-width: 0.75; stroke-linejoin: miter"/>
     <use xlink:href="#m97d946bfd1" x="207.900057" y="35.407184" style="fill: #f89438; stroke: #ffffff; stroke-width: 0.75; stroke-linejoin: miter"/>
    </g>
   </g>
   <g id="line2d_50">
    <path d="M 37.963693 32.358821 
L 62.240317 27.893979 
L 86.51694 24.640145 
L 110.793563 24.163906 
L 135.070187 24.239332 
L 159.34681 25.075351 
L 183.623433 25.371348 
L 207.900057 27.270879 
" clip-path="url(#pc9722bceb2)" style="fill: none; stroke-dasharray: 5,1,1,1; stroke-dashoffset: 0; stroke: #ef1561"/>
    <defs>
     <path id="me4170e3557" d="M 0 -2.5 
L -2.5 -0 
L -0 2.5 
L 2.5 0 
z
" style="stroke: #ffffff; stroke-width: 0.75; stroke-linejoin: miter"/>
    </defs>
    <g clip-path="url(#pc9722bceb2)">
     <use xlink:href="#me4170e3557" x="37.963693" y="32.358821" style="fill: #ef1561; stroke: #ffffff; stroke-width: 0.75; stroke-linejoin: miter"/>
     <use xlink:href="#me4170e3557" x="62.240317" y="27.893979" style="fill: #ef1561; stroke: #ffffff; stroke-width: 0.75; stroke-linejoin: miter"/>
     <use xlink:href="#me4170e3557" x="86.51694" y="24.640145" style="fill: #ef1561; stroke: #ffffff; stroke-width: 0.75; stroke-linejoin: miter"/>
     <use xlink:href="#me4170e3557" x="110.793563" y="24.163906" style="fill: #ef1561; stroke: #ffffff; stroke-width: 0.75; stroke-linejoin: miter"/>
     <use xlink:href="#me4170e3557" x="135.070187" y="24.239332" style="fill: #ef1561; stroke: #ffffff; stroke-width: 0.75; stroke-linejoin: miter"/>
     <use xlink:href="#me4170e3557" x="159.34681" y="25.075351" style="fill: #ef1561; stroke: #ffffff; stroke-width: 0.75; stroke-linejoin: miter"/>
     <use xlink:href="#me4170e3557" x="183.623433" y="25.371348" style="fill: #ef1561; stroke: #ffffff; stroke-width: 0.75; stroke-linejoin: miter"/>
     <use xlink:href="#me4170e3557" x="207.900057" y="27.270879" style="fill: #ef1561; stroke: #ffffff; stroke-width: 0.75; stroke-linejoin: miter"/>
    </g>
   </g>
   <g id="line2d_51"/>
   <g id="line2d_52"/>
   <g id="line2d_53"/>
   <g id="line2d_54"/>
   <g id="line2d_55"/>
   <g id="line2d_56"/>
   <g id="patch_3">
    <path d="M 29.466875 59.04 
L 29.466875 3.6 
" style="fill: none; stroke: #212121; stroke-width: 0.5; stroke-linejoin: miter; stroke-linecap: square"/>
   </g>
   <g id="patch_4">
    <path d="M 216.396875 59.04 
L 216.396875 3.6 
" style="fill: none; stroke: #212121; stroke-width: 0.5; stroke-linejoin: miter; stroke-linecap: square"/>
   </g>
   <g id="patch_5">
    <path d="M 29.466875 59.04 
L 216.396875 59.04 
" style="fill: none; stroke: #212121; stroke-width: 0.5; stroke-linejoin: miter; stroke-linecap: square"/>
   </g>
   <g id="patch_6">
    <path d="M 29.466875 3.6 
L 216.396875 3.6 
" style="fill: none; stroke: #212121; stroke-width: 0.5; stroke-linejoin: miter; stroke-linecap: square"/>
   </g>
   <g id="legend_1">
    <g id="patch_7">
     <path d="M 220.596875 55.640625 
L 301.402813 55.640625 
Q 302.602813 55.640625 302.602813 54.440625 
L 302.602813 8.199375 
Q 302.602813 6.999375 301.402813 6.999375 
L 220.596875 6.999375 
Q 219.396875 6.999375 219.396875 8.199375 
L 219.396875 54.440625 
Q 219.396875 55.640625 220.596875 55.640625 
z
" style="fill: #ffffff; opacity: 0.8; stroke: #cccccc; stroke-linejoin: miter"/>
    </g>
    <g id="line2d_57">
     <path d="M 221.796875 11.858437 
L 227.796875 11.858437 
L 233.796875 11.858437 
" style="fill: none; stroke-dasharray: 5,1,1,1; stroke-dashoffset: 0; stroke: #ef1561"/>
     <g>
      <use xlink:href="#me4170e3557" x="227.796875" y="11.858437" style="fill: #ef1561; stroke: #ffffff; stroke-width: 0.75; stroke-linejoin: miter"/>
     </g>
    </g>
    <g id="text_15">
     <!-- Dask -->
     <g style="fill: #212121" transform="translate(238.596875 13.958437) scale(0.06 -0.06)">
      <defs>
       <path id="DejaVuSans-44" d="M 1259 4147 
L 1259 519 
L 2022 519 
Q 2988 519 3436 956 
Q 3884 1394 3884 2338 
Q 3884 3275 3436 3711 
Q 2988 4147 2022 4147 
L 1259 4147 
z
M 628 4666 
L 1925 4666 
Q 3281 4666 3915 4102 
Q 4550 3538 4550 2338 
Q 4550 1131 3912 565 
Q 3275 0 1925 0 
L 628 0 
L 628 4666 
z
" transform="scale(0.015625)"/>
      </defs>
      <use xlink:href="#DejaVuSans-44"/>
      <use xlink:href="#DejaVuSans-61" x="77.001953"/>
      <use xlink:href="#DejaVuSans-73" x="138.28125"/>
      <use xlink:href="#DejaVuSans-6b" x="190.380859"/>
     </g>
    </g>
    <g id="line2d_58">
     <path d="M 221.796875 19.465312 
L 227.796875 19.465312 
L 233.796875 19.465312 
" style="fill: none; stroke-dasharray: 1,1; stroke-dashoffset: 0; stroke: #f89438"/>
     <g>
      <use xlink:href="#m97d946bfd1" x="227.796875" y="19.465312" style="fill: #f89438; stroke: #ffffff; stroke-width: 0.75; stroke-linejoin: miter"/>
     </g>
    </g>
    <g id="text_16">
     <!-- Globus Compute -->
     <g style="fill: #212121" transform="translate(238.596875 21.565312) scale(0.06 -0.06)">
      <defs>
       <path id="DejaVuSans-47" d="M 3809 666 
L 3809 1919 
L 2778 1919 
L 2778 2438 
L 4434 2438 
L 4434 434 
Q 4069 175 3628 42 
Q 3188 -91 2688 -91 
Q 1594 -91 976 548 
Q 359 1188 359 2328 
Q 359 3472 976 4111 
Q 1594 4750 2688 4750 
Q 3144 4750 3555 4637 
Q 3966 4525 4313 4306 
L 4313 3634 
Q 3963 3931 3569 4081 
Q 3175 4231 2741 4231 
Q 1884 4231 1454 3753 
Q 1025 3275 1025 2328 
Q 1025 1384 1454 906 
Q 1884 428 2741 428 
Q 3075 428 3337 486 
Q 3600 544 3809 666 
z
" transform="scale(0.015625)"/>
       <path id="DejaVuSans-6c" d="M 603 4863 
L 1178 4863 
L 1178 0 
L 603 0 
L 603 4863 
z
" transform="scale(0.015625)"/>
       <path id="DejaVuSans-62" d="M 3116 1747 
Q 3116 2381 2855 2742 
Q 2594 3103 2138 3103 
Q 1681 3103 1420 2742 
Q 1159 2381 1159 1747 
Q 1159 1113 1420 752 
Q 1681 391 2138 391 
Q 2594 391 2855 752 
Q 3116 1113 3116 1747 
z
M 1159 2969 
Q 1341 3281 1617 3432 
Q 1894 3584 2278 3584 
Q 2916 3584 3314 3078 
Q 3713 2572 3713 1747 
Q 3713 922 3314 415 
Q 2916 -91 2278 -91 
Q 1894 -91 1617 61 
Q 1341 213 1159 525 
L 1159 0 
L 581 0 
L 581 4863 
L 1159 4863 
L 1159 2969 
z
" transform="scale(0.015625)"/>
       <path id="DejaVuSans-75" d="M 544 1381 
L 544 3500 
L 1119 3500 
L 1119 1403 
Q 1119 906 1312 657 
Q 1506 409 1894 409 
Q 2359 409 2629 706 
Q 2900 1003 2900 1516 
L 2900 3500 
L 3475 3500 
L 3475 0 
L 2900 0 
L 2900 538 
Q 2691 219 2414 64 
Q 2138 -91 1772 -91 
Q 1169 -91 856 284 
Q 544 659 544 1381 
z
M 1991 3584 
L 1991 3584 
z
" transform="scale(0.015625)"/>
       <path id="DejaVuSans-43" d="M 4122 4306 
L 4122 3641 
Q 3803 3938 3442 4084 
Q 3081 4231 2675 4231 
Q 1875 4231 1450 3742 
Q 1025 3253 1025 2328 
Q 1025 1406 1450 917 
Q 1875 428 2675 428 
Q 3081 428 3442 575 
Q 3803 722 4122 1019 
L 4122 359 
Q 3791 134 3420 21 
Q 3050 -91 2638 -91 
Q 1578 -91 968 557 
Q 359 1206 359 2328 
Q 359 3453 968 4101 
Q 1578 4750 2638 4750 
Q 3056 4750 3426 4639 
Q 3797 4528 4122 4306 
z
" transform="scale(0.015625)"/>
       <path id="DejaVuSans-6d" d="M 3328 2828 
Q 3544 3216 3844 3400 
Q 4144 3584 4550 3584 
Q 5097 3584 5394 3201 
Q 5691 2819 5691 2113 
L 5691 0 
L 5113 0 
L 5113 2094 
Q 5113 2597 4934 2840 
Q 4756 3084 4391 3084 
Q 3944 3084 3684 2787 
Q 3425 2491 3425 1978 
L 3425 0 
L 2847 0 
L 2847 2094 
Q 2847 2600 2669 2842 
Q 2491 3084 2119 3084 
Q 1678 3084 1418 2786 
Q 1159 2488 1159 1978 
L 1159 0 
L 581 0 
L 581 3500 
L 1159 3500 
L 1159 2956 
Q 1356 3278 1631 3431 
Q 1906 3584 2284 3584 
Q 2666 3584 2933 3390 
Q 3200 3197 3328 2828 
z
" transform="scale(0.015625)"/>
       <path id="DejaVuSans-70" d="M 1159 525 
L 1159 -1331 
L 581 -1331 
L 581 3500 
L 1159 3500 
L 1159 2969 
Q 1341 3281 1617 3432 
Q 1894 3584 2278 3584 
Q 2916 3584 3314 3078 
Q 3713 2572 3713 1747 
Q 3713 922 3314 415 
Q 2916 -91 2278 -91 
Q 1894 -91 1617 61 
Q 1341 213 1159 525 
z
M 3116 1747 
Q 3116 2381 2855 2742 
Q 2594 3103 2138 3103 
Q 1681 3103 1420 2742 
Q 1159 2381 1159 1747 
Q 1159 1113 1420 752 
Q 1681 391 2138 391 
Q 2594 391 2855 752 
Q 3116 1113 3116 1747 
z
" transform="scale(0.015625)"/>
       <path id="DejaVuSans-74" d="M 1172 4494 
L 1172 3500 
L 2356 3500 
L 2356 3053 
L 1172 3053 
L 1172 1153 
Q 1172 725 1289 603 
Q 1406 481 1766 481 
L 2356 481 
L 2356 0 
L 1766 0 
Q 1100 0 847 248 
Q 594 497 594 1153 
L 594 3053 
L 172 3053 
L 172 3500 
L 594 3500 
L 594 4494 
L 1172 4494 
z
" transform="scale(0.015625)"/>
      </defs>
      <use xlink:href="#DejaVuSans-47"/>
      <use xlink:href="#DejaVuSans-6c" x="77.490234"/>
      <use xlink:href="#DejaVuSans-6f" x="105.273438"/>
      <use xlink:href="#DejaVuSans-62" x="166.455078"/>
      <use xlink:href="#DejaVuSans-75" x="229.931641"/>
      <use xlink:href="#DejaVuSans-73" x="293.310547"/>
      <use xlink:href="#DejaVuSans-20" x="345.410156"/>
      <use xlink:href="#DejaVuSans-43" x="377.197266"/>
      <use xlink:href="#DejaVuSans-6f" x="447.021484"/>
      <use xlink:href="#DejaVuSans-6d" x="508.203125"/>
      <use xlink:href="#DejaVuSans-70" x="605.615234"/>
      <use xlink:href="#DejaVuSans-75" x="669.091797"/>
      <use xlink:href="#DejaVuSans-74" x="732.470703"/>
      <use xlink:href="#DejaVuSans-65" x="771.679688"/>
     </g>
    </g>
    <g id="line2d_59">
     <path d="M 221.796875 27.072187 
L 227.796875 27.072187 
L 233.796875 27.072187 
" style="fill: none; stroke-dasharray: 3,1.25,1.5,1.25; stroke-dashoffset: 0; stroke: #2d5d91"/>
     <g>
      <use xlink:href="#m35bc4b0560" x="227.796875" y="27.072187" style="fill: #2d5d91; stroke: #ffffff; stroke-width: 0.75; stroke-linejoin: miter"/>
     </g>
    </g>
    <g id="text_17">
     <!-- Parsl -->
     <g style="fill: #212121" transform="translate(238.596875 29.172187) scale(0.06 -0.06)">
      <defs>
       <path id="DejaVuSans-50" d="M 1259 4147 
L 1259 2394 
L 2053 2394 
Q 2494 2394 2734 2622 
Q 2975 2850 2975 3272 
Q 2975 3691 2734 3919 
Q 2494 4147 2053 4147 
L 1259 4147 
z
M 628 4666 
L 2053 4666 
Q 2838 4666 3239 4311 
Q 3641 3956 3641 3272 
Q 3641 2581 3239 2228 
Q 2838 1875 2053 1875 
L 1259 1875 
L 1259 0 
L 628 0 
L 628 4666 
z
" transform="scale(0.015625)"/>
      </defs>
      <use xlink:href="#DejaVuSans-50"/>
      <use xlink:href="#DejaVuSans-61" x="55.802734"/>
      <use xlink:href="#DejaVuSans-72" x="117.082031"/>
      <use xlink:href="#DejaVuSans-73" x="158.195312"/>
      <use xlink:href="#DejaVuSans-6c" x="210.294922"/>
     </g>
    </g>
    <g id="line2d_60">
     <path d="M 221.796875 34.679062 
L 227.796875 34.679062 
L 233.796875 34.679062 
" style="fill: none; stroke-dasharray: 3,1.25,1.25,1.25,1.25,1.25; stroke-dashoffset: 0; stroke: #ffde57"/>
     <g>
      <use xlink:href="#m6f8f9465b2" x="227.796875" y="34.679062" style="fill: #ffde57; stroke: #ffffff; stroke-width: 0.75; stroke-linejoin: bevel"/>
     </g>
    </g>
    <g id="text_18">
     <!-- ProcessPoolExecutor -->
     <g style="fill: #212121" transform="translate(238.596875 36.779062) scale(0.06 -0.06)">
      <defs>
       <path id="DejaVuSans-45" d="M 628 4666 
L 3578 4666 
L 3578 4134 
L 1259 4134 
L 1259 2753 
L 3481 2753 
L 3481 2222 
L 1259 2222 
L 1259 531 
L 3634 531 
L 3634 0 
L 628 0 
L 628 4666 
z
" transform="scale(0.015625)"/>
       <path id="DejaVuSans-78" d="M 3513 3500 
L 2247 1797 
L 3578 0 
L 2900 0 
L 1881 1375 
L 863 0 
L 184 0 
L 1544 1831 
L 300 3500 
L 978 3500 
L 1906 2253 
L 2834 3500 
L 3513 3500 
z
" transform="scale(0.015625)"/>
      </defs>
      <use xlink:href="#DejaVuSans-50"/>
      <use xlink:href="#DejaVuSans-72" x="58.552734"/>
      <use xlink:href="#DejaVuSans-6f" x="97.416016"/>
      <use xlink:href="#DejaVuSans-63" x="158.597656"/>
      <use xlink:href="#DejaVuSans-65" x="213.578125"/>
      <use xlink:href="#DejaVuSans-73" x="275.101562"/>
      <use xlink:href="#DejaVuSans-73" x="327.201172"/>
      <use xlink:href="#DejaVuSans-50" x="379.300781"/>
      <use xlink:href="#DejaVuSans-6f" x="435.978516"/>
      <use xlink:href="#DejaVuSans-6f" x="497.160156"/>
      <use xlink:href="#DejaVuSans-6c" x="558.341797"/>
      <use xlink:href="#DejaVuSans-45" x="586.125"/>
      <use xlink:href="#DejaVuSans-78" x="649.308594"/>
      <use xlink:href="#DejaVuSans-65" x="705.363281"/>
      <use xlink:href="#DejaVuSans-63" x="766.886719"/>
      <use xlink:href="#DejaVuSans-75" x="821.867188"/>
      <use xlink:href="#DejaVuSans-74" x="885.246094"/>
      <use xlink:href="#DejaVuSans-6f" x="924.455078"/>
      <use xlink:href="#DejaVuSans-72" x="985.636719"/>
     </g>
    </g>
    <g id="line2d_61">
     <path d="M 221.796875 42.285937 
L 227.796875 42.285937 
L 233.796875 42.285937 
" style="fill: none; stroke: #028cf0; stroke-linecap: square"/>
     <g>
      <use xlink:href="#m7ca20fff86" x="227.796875" y="42.285937" style="fill: #028cf0; stroke: #ffffff; stroke-width: 0.75"/>
     </g>
    </g>
    <g id="text_19">
     <!-- Ray -->
     <g style="fill: #212121" transform="translate(238.596875 44.385937) scale(0.06 -0.06)">
      <defs>
       <path id="DejaVuSans-52" d="M 2841 2188 
Q 3044 2119 3236 1894 
Q 3428 1669 3622 1275 
L 4263 0 
L 3584 0 
L 2988 1197 
Q 2756 1666 2539 1819 
Q 2322 1972 1947 1972 
L 1259 1972 
L 1259 0 
L 628 0 
L 628 4666 
L 2053 4666 
Q 2853 4666 3247 4331 
Q 3641 3997 3641 3322 
Q 3641 2881 3436 2590 
Q 3231 2300 2841 2188 
z
M 1259 4147 
L 1259 2491 
L 2053 2491 
Q 2509 2491 2742 2702 
Q 2975 2913 2975 3322 
Q 2975 3731 2742 3939 
Q 2509 4147 2053 4147 
L 1259 4147 
z
" transform="scale(0.015625)"/>
       <path id="DejaVuSans-79" d="M 2059 -325 
Q 1816 -950 1584 -1140 
Q 1353 -1331 966 -1331 
L 506 -1331 
L 506 -850 
L 844 -850 
Q 1081 -850 1212 -737 
Q 1344 -625 1503 -206 
L 1606 56 
L 191 3500 
L 800 3500 
L 1894 763 
L 2988 3500 
L 3597 3500 
L 2059 -325 
z
" transform="scale(0.015625)"/>
      </defs>
      <use xlink:href="#DejaVuSans-52"/>
      <use xlink:href="#DejaVuSans-61" x="67.232422"/>
      <use xlink:href="#DejaVuSans-79" x="128.511719"/>
     </g>
    </g>
    <g id="line2d_62">
     <path d="M 221.796875 49.892812 
L 227.796875 49.892812 
L 233.796875 49.892812 
" style="fill: none; stroke-dasharray: 4,1.5; stroke-dashoffset: 0; stroke: #008000"/>
     <g>
      <use xlink:href="#m5a9c83220b" x="227.796875" y="49.892812" style="fill: #008000; stroke: #ffffff; stroke-width: 0.75; stroke-linejoin: miter"/>
     </g>
    </g>
    <g id="text_20">
     <!-- TaskVine -->
     <g style="fill: #212121" transform="translate(238.596875 51.992812) scale(0.06 -0.06)">
      <defs>
       <path id="DejaVuSans-56" d="M 1831 0 
L 50 4666 
L 709 4666 
L 2188 738 
L 3669 4666 
L 4325 4666 
L 2547 0 
L 1831 0 
z
" transform="scale(0.015625)"/>
       <path id="DejaVuSans-69" d="M 603 3500 
L 1178 3500 
L 1178 0 
L 603 0 
L 603 3500 
z
M 603 4863 
L 1178 4863 
L 1178 4134 
L 603 4134 
L 603 4863 
z
" transform="scale(0.015625)"/>
      </defs>
      <use xlink:href="#DejaVuSans-54"/>
      <use xlink:href="#DejaVuSans-61" x="44.583984"/>
      <use xlink:href="#DejaVuSans-73" x="105.863281"/>
      <use xlink:href="#DejaVuSans-6b" x="157.962891"/>
      <use xlink:href="#DejaVuSans-56" x="215.873047"/>
      <use xlink:href="#DejaVuSans-69" x="282.03125"/>
      <use xlink:href="#DejaVuSans-6e" x="309.814453"/>
      <use xlink:href="#DejaVuSans-65" x="373.193359"/>
     </g>
    </g>
   </g>
  </g>
 </g>
 <defs>
  <clipPath id="pc9722bceb2">
   <rect x="29.466875" y="3.6" width="186.93" height="55.44"/>
  </clipPath>
 </defs>
</svg>
